<svg width="99" height="67" xmlns="http://www.w3.org/2000/svg">

 <g>
  <title>background</title>
  <rect fill="none" id="canvas_background" height="69" width="101" y="-1" x="-1"/>
 </g>
 <g>
  <title>Layer 1</title>
  <g stroke="null" id="svg_1">
   <g stroke="null" id="svg_2">
    <path stroke="null" id="svg_3" d="m24.852415,21.587009c-0.097193,0.0958 -0.188191,0.165647 -0.251889,0.251518c-0.682482,0.920028 -1.382777,1.830127 -2.032732,2.768618c-0.506489,0.731215 -1.090423,1.420452 -1.437375,2.242763c-0.174832,0.414204 -0.489645,0.782598 -0.75741,1.162489c-0.654796,0.929433 -1.301847,1.863918 -1.985491,2.776108c-0.470864,0.628273 -1.000393,1.221014 -1.497589,1.833611c-0.174638,0.215289 -0.317524,0.451827 -0.499132,0.661716c-0.157794,0.182194 -0.330496,0.36282 -0.531078,0.50443c-0.395936,0.279387 -0.815881,0.531254 -1.220724,0.790959c-0.363797,0.101548 -0.726432,0.202922 -1.162253,0.324675c-0.349663,-0.012889 -0.783548,-0.02874 -1.340957,-0.049293c-0.433884,-0.288097 -0.966705,-0.636111 -1.491199,-0.994403c-0.108229,-0.073853 -0.184125,-0.185678 -0.27551,-0.279387c-0.180253,-0.184458 -0.361086,-0.368568 -0.532046,-0.54275c-0.059632,-0.215114 -0.121201,-0.433712 -0.180446,-0.652833c-0.075702,-0.27991 -0.169798,-0.557207 -0.219362,-0.840949c-0.100097,-0.573058 -0.186255,-1.148554 -0.256536,-1.725095c-0.036786,-0.302728 -0.047822,-0.610507 -0.035625,-0.914802c0.030397,-0.756297 0.085383,-1.511723 0.119652,-2.267845c0.007164,-0.15868 -0.03214,-0.319101 -0.047435,-0.456356c0.07667,-0.37031 0.161085,-0.722157 0.220718,-1.077488c0.177736,-1.05885 0.345597,-2.11892 0.517718,-3.178641c0.10184,-0.626706 0.195161,-1.254805 0.308811,-1.879769c0.120233,-0.660149 0.275703,-1.315246 0.386837,-1.976614c0.101259,-0.601624 0.274348,-1.190183 0.326043,-1.802606c0.03911,-0.46193 0.210069,-0.914454 0.316749,-1.372377c0.242402,-1.041606 0.450729,-2.090529 0.734177,-3.122903c0.147726,-0.537699 0.257504,-1.084978 0.472994,-1.612748c0.191482,-0.468723 0.254213,-0.979424 0.377543,-1.470964c0.099323,-0.395741 0.207358,-0.78974 0.30552,-1.185829c0.092159,-0.37153 -0.111714,-0.689063 -0.242209,-1.019311c-0.012972,-0.03292 -0.033301,-0.063402 -0.075509,-0.143003c0.089449,0.012193 0.146758,0.019857 0.253438,0.034314c0.073573,-0.491541 0.211231,-0.97054 0.632143,-1.376732c0.056147,-0.0054 0.152566,-0.01498 0.273187,-0.026824c0.049952,0.137604 0.092159,0.254305 0.126622,0.348886c0.322558,-0.174007 0.651892,-0.351499 0.985485,-0.531428c0.127203,0.212676 0.228849,0.382503 0.331851,0.55442c0.197291,-0.176272 0.363991,-0.325371 0.51191,-0.457575c0.964768,-0.120882 1.8155,0.181497 2.68869,0.34906c0.087513,0.171743 0.162053,0.31823 0.2546,0.499901c0.038916,0.010277 0.109584,0.02874 0.209488,0.054867c0.48403,0.564697 0.5092,0.577412 1.31327,0.650917c0.145983,0.108689 0.295645,0.219991 0.471252,0.350628c0.017619,0.119314 0.052082,0.260924 0.055373,0.402882c0.003291,0.140216 -0.02517,0.280955 -0.045305,0.476387c-0.162247,-0.06497 -0.277252,-0.111128 -0.417815,-0.167389c-0.239111,0.115831 -0.076864,0.327462 -0.08306,0.535957c-0.079187,0.137778 -0.17154,0.297676 -0.251502,0.436673c-0.02575,0.56731 -0.045886,1.111279 -0.077058,1.654726c-0.014134,0.24699 -0.110746,0.464891 -0.226332,0.697598c-0.159343,0.320494 -0.182963,0.705087 -0.212199,1.065818c-0.031559,0.387728 -0.179672,0.728428 -0.326623,1.088287c-0.200195,0.490321 -0.535724,0.957303 -0.470864,1.524438c0.014327,0.125759 -0.104744,0.262492 -0.15547,0.396263c-0.069313,0.182717 -0.132043,0.367349 -0.139207,0.568703c0.043563,-0.065144 0.087319,-0.130462 0.174444,-0.260576c0.026718,0.344009 -0.04879,0.602669 -0.119846,0.866031c-0.105712,0.391735 -0.195742,0.787301 -0.273961,1.184261c-0.021685,0.109734 0.022265,0.229746 0.044144,0.412636c0.300486,-0.251518 0.275316,-0.634892 0.674157,-0.770231c-0.068732,0.327636 -0.127978,0.621654 -0.192257,0.914802c-0.073573,0.335474 -0.139981,0.67269 -0.231173,1.004157c-0.070862,0.258137 -0.116361,0.513313 -0.274929,0.763264c-0.160504,0.252738 -0.166313,0.590476 -0.213167,0.894423c-0.056728,0.36822 -0.09003,0.715887 -0.364378,1.046484c-0.210843,0.254131 -0.254406,0.624441 -0.353535,0.947897c-0.074541,0.242635 -0.055373,0.526725 -0.190321,0.732608c-0.321396,0.490147 -0.366701,1.036207 -0.476479,1.566416c-0.144435,0.697249 -0.457505,1.335277 -0.734564,1.990026c-0.189159,0.44695 -0.280737,0.927517 -0.450535,1.512245c0.504746,-0.465413 0.920238,-0.806984 1.215302,-1.27501c0.261763,-0.415423 0.679578,-0.750375 1.02169,-1.126085c0.586838,-0.644472 1.163608,-1.29626 1.754125,-1.937945c0.281318,-0.305689 0.587419,-0.593089 0.876869,-0.892681c0.790711,-0.81848 1.584714,-1.634695 2.363034,-2.462755c0.16457,-0.175227 0.296226,-0.386683 0.393807,-0.599533c0.289256,-0.630538 0.77348,-0.974895 1.51966,-1.19088c0.779675,-0.225739 1.566902,-0.264059 2.35316,-0.365607c0.744825,-0.096148 1.481519,0.45444 1.539215,1.111453c0.031559,0.359163 0.368831,1.418013 0.546373,1.692872c0.010649,0.194735 0.022653,0.412288 0.035818,0.651788c0.140175,0.167563 0.292354,0.349408 0.50707,0.605978c0.271057,-0.697423 0.511136,-1.321865 0.756442,-1.94439c0.363216,-0.921769 0.73166,-1.841971 1.095263,-2.763741c0.356827,-0.904525 0.693712,-1.816018 1.072223,-2.713054c0.177736,-0.420997 0.432916,-0.815519 0.653053,-1.222059c0.403294,-0.744975 0.801941,-1.49204 1.211817,-2.234228c0.276284,-0.50025 0.267765,-1.049619 0.386256,-1.564848c-0.089642,-0.160247 -0.167474,-0.299418 -0.288675,-0.5161c0.211618,0.079427 0.348308,0.130636 0.502229,0.18829c0.272993,-0.144222 0.674351,-0.029437 0.910751,-0.325546c-0.053243,-0.083607 -0.101453,-0.158854 -0.156438,-0.245248c0.137658,-0.081517 0.277833,-0.164428 0.417621,-0.247164c-0.012004,-0.118269 -0.021685,-0.21494 -0.035818,-0.354982c0.225364,0.044068 0.411813,0.080646 0.606199,0.118618c0.026525,-0.084478 0.051114,-0.163208 0.089642,-0.285832c0.293322,-0.003832 0.591097,-0.007664 0.902813,-0.01167c0.061181,-0.055738 0.129139,-0.117573 0.21278,-0.19369c0.248017,0.048771 0.50978,0.272769 0.758959,-0.009057c0.391677,0.17244 0.756055,0.333035 1.150249,0.50652c0.033108,0.163034 0.051888,0.342441 0.109197,0.511397c0.052082,0.153628 0.14579,0.29576 0.2273,0.454788c-0.024201,0.044591 -0.058277,0.107818 -0.124299,0.22992c0.117329,-0.024908 0.183157,-0.038843 0.282286,-0.059918c0.041239,0.037275 0.139207,0.083956 0.141143,0.133946c0.01878,0.479871 0.12275,0.973327 -0.303003,1.382654c-0.119265,0.114612 -0.193031,0.278517 -0.251115,0.4311c-0.148888,0.391909 -0.275897,0.790436 -0.41491,1.185481c-0.030397,0.086394 -0.058277,0.178536 -0.114037,0.251693c-0.392839,0.515926 -0.507457,1.130613 -0.760895,1.695484c-0.435627,0.970715 -0.641436,1.993335 -0.923142,2.999931c-0.151598,0.541531 -0.354116,1.072611 -0.559151,1.600555c-0.183351,0.472207 -0.410845,0.930304 -0.601165,1.400421c-0.1576,0.389296 -0.289644,0.786953 -0.350631,1.237038c-0.10455,0.055912 -0.208907,0.11165 -0.245306,0.130985c-0.193806,0.486489 -0.350825,0.912015 -0.532239,1.328832c-0.226332,0.520106 -0.491581,1.026975 -0.705522,1.550914c-0.239498,0.58647 -0.450922,1.182868 -0.655957,1.779963c-0.30339,0.884146 -0.703005,1.72736 -1.221111,2.528073c-0.288869,0.446602 -0.573479,0.87805 -1.002136,1.245747c-0.474349,0.406714 -1.03079,0.533344 -1.630794,0.601101c-0.238336,0.026998 -0.483255,0.006793 -0.842018,0.008883c-0.489451,-0.207973 -1.083259,-0.460014 -1.66274,-0.706133c-0.228656,-0.461233 -0.854216,-0.693417 -0.787033,-1.247315c-0.329915,-0.290883 -0.473381,-0.602843 -0.46525,-0.992661c0.005034,-0.248209 -0.041627,-0.513139 -0.14095,-0.744278c-0.319073,-0.743582 -0.478609,-1.525309 -0.670672,-2.294495c-0.246468,-0.987262 -0.378705,-1.997516 -0.565541,-2.997144c-0.046273,-0.252215 -0.104938,-0.505127 -0.33553,-0.726512zm-6.481935,-3.527353c-0.092547,0.06375 -0.149856,0.103116 -0.225945,0.15537c0.216071,0.10747 0.263312,0.056609 0.225945,-0.15537zm20.171077,-3.010382l0.01878,-0.027521l-0.027299,-0.004006l0.008519,0.031527z"/>
    <path stroke="null" id="svg_4" d="m87.176691,17.328442c-0.002711,0.265801 -0.216845,0.306908 -0.480158,0.34157c-0.082285,0.219469 -0.170185,0.454266 -0.277446,0.740098c-0.087319,-0.08413 -0.154309,-0.148751 -0.225752,-0.217379c-0.035431,0.016199 -0.084996,0.023515 -0.099904,0.0479c-0.082285,0.135339 -0.164377,0.271723 -0.231173,0.413507c-0.077638,0.165124 -0.191869,0.33408 -0.200195,0.504953c-0.057503,1.185132 -0.368056,2.333512 -0.694293,3.468306c-0.314232,1.093164 -0.610652,2.195386 -1.084227,3.253365c-0.236013,0.527074 -0.306488,1.116679 -0.512104,1.666919c-0.125461,0.335648 -0.134754,0.706481 -0.211231,1.147683c-0.073766,0.088658 -0.206003,0.247512 -0.330108,0.396612c-0.083447,0.269111 -0.164183,0.530035 -0.254019,0.819873c-0.118297,-0.024734 -0.222654,-0.066189 -0.324687,-0.06166c-0.090804,0.004006 -0.178704,0.059222 -0.271638,0.093187c-0.072604,-0.124192 -0.133592,-0.228526 -0.212199,-0.36282c-0.064279,0.064621 -0.129526,0.100677 -0.12759,0.133249c0.007744,0.121579 0.037561,0.241938 0.070088,0.424655c-0.255181,-0.112696 -0.476673,-0.210586 -0.767865,-0.339132c-0.229817,0.04999 -0.512297,0.134642 -0.801747,0.166518c-0.190901,0.021076 -0.423817,0.016721 -0.582578,-0.064099c-0.422461,-0.21494 -0.779675,-0.491889 -0.946375,-0.941104c-0.146371,-0.394522 -0.358376,-0.770057 -0.549664,-1.15047c-0.193999,-0.385987 -0.279576,-0.767793 -0.199033,-1.205337c0.057116,-0.309869 -0.054211,-0.644821 -0.09003,-0.968624c-0.059632,-0.539789 -0.075509,-1.076791 -0.056341,-1.622677c0.039497,-1.129742 0.292741,-2.237712 0.347146,-3.364668c0.032914,-0.683837 0.091385,-1.370287 0.204648,-2.046635c0.125461,-0.74933 0.327591,-1.488382 0.492936,-2.232487c0.042401,-0.191077 0.072992,-0.384419 0.121007,-0.640292c-0.328172,0.164253 -0.582385,0.297676 -0.842793,0.4203c-0.572898,0.269982 -1.138438,0.538918 -1.784909,0.672341c-0.616848,0.127327 -1.208139,0.355505 -1.769226,0.526551c-0.167668,0.584554 -0.323526,1.124865 -0.476866,1.665525c-0.050339,0.177317 -0.004259,0.479522 0.079381,0.675825c-0.169023,0.372749 -0.328366,0.697772 -0.464282,1.030633c-0.138239,0.338261 -0.283835,0.677915 -0.370573,1.028194c-0.083447,0.336171 0.008713,0.706481 -0.254406,1.120511c-0.022846,0.36073 0.031172,0.85558 -0.451503,1.247838c-0.412394,0.766399 -0.459828,1.747216 -1.347733,2.356852c-0.170766,0.001393 -0.348695,0.002787 -0.461377,0.003832c-0.175412,0.239151 -0.318879,0.434932 -0.435433,0.59396c-0.296807,0.035707 -0.531271,0.063925 -0.855765,0.102767c-0.034657,-0.044242 -0.102808,-0.131333 -0.164377,-0.210063c0.023427,-0.12872 0.042401,-0.232881 0.061762,-0.338783c-0.364959,-0.127675 -0.538822,0.161641 -0.853442,0.293148c-0.712105,-0.388599 -1.45693,-0.794965 -2.192656,-1.196454c-0.026138,-0.193516 -0.047822,-0.352718 -0.073766,-0.544492c-0.080155,-0.006793 -0.151017,-0.014283 -0.222267,-0.018637c-0.074734,-0.004529 -0.149662,-0.005922 -0.253632,-0.009754c0.014521,-0.073505 0.015876,-0.120882 0.033495,-0.162512c0.058084,-0.137604 0.122169,-0.272943 0.188965,-0.4203c-0.141337,-0.044242 -0.215297,-0.067408 -0.289256,-0.090749c0.056922,-0.042326 0.113844,-0.084478 0.194193,-0.144048c-0.130301,-0.312482 -0.260408,-0.624093 -0.397873,-0.953819c-0.00484,-0.349408 0.010068,-0.725467 -0.019748,-1.098564c-0.055567,-0.698469 0.100097,-1.374816 0.222073,-2.055692c0.160892,-0.897907 0.485579,-1.760454 0.706877,-2.645297c0.202131,-0.808726 0.432336,-1.613967 0.580449,-2.43088c0.123524,-0.681225 0.356246,-1.331793 0.545986,-1.994729c0.411425,-1.437173 0.84047,-2.870514 1.214722,-4.315525c0.103776,-0.400792 0.274929,-0.779637 0.367863,-1.180778c0.257698,-1.114066 0.53069,-2.225345 0.775416,-3.341676c0.040271,-0.183936 -0.001936,-0.395044 -0.058277,-0.580722c-0.097968,-0.322759 -0.236594,-0.635589 -0.393032,-1.043c0.022459,-0.058699 0.079575,-0.208844 0.132043,-0.347144c0.227107,-0.147532 0.434659,-0.282349 0.649375,-0.421694c0.089255,0.148054 0.157213,0.260576 0.216265,0.358814c0.392064,0.009754 0.567864,-0.192993 0.680352,-0.480219c1.405236,0.448692 2.77446,0.885888 4.103219,1.31002c0.17367,0.403231 0.324106,0.752813 0.474543,1.102396c0.034076,0.000174 0.068151,0.000174 0.102227,0.000523c-0.075121,0.198219 -0.150049,0.396612 -0.24066,0.636286c0.038916,0.09162 0.096225,0.226088 0.164183,0.385638c-0.009293,0.203793 -0.019748,0.432841 -0.030591,0.674954c0.09003,-0.031527 0.144047,-0.050513 0.21336,-0.074898c0.012004,0.070892 0.044337,0.141958 0.031946,0.205883c-0.15973,0.815693 0.063311,1.665177 -0.270476,2.464845c0.047048,0.71519 -0.163796,1.400943 -0.283835,2.097844c-0.031946,0.185329 0.048984,0.386335 0.086157,0.632454c-0.087513,0.014283 -0.232528,0.037972 -0.373284,0.060964c-0.126429,0.335648 -0.25731,0.683489 -0.406972,1.080623c0.02517,0.047552 0.074347,0.14039 0.131656,0.248209c0.076283,-0.040062 0.153341,-0.056087 0.166894,-0.091794c0.084608,-0.219991 0.155083,-0.444337 0.268927,-0.782424c0.079768,0.174356 0.157794,0.258137 0.141918,0.323455c-0.128365,0.52777 -0.274348,1.052057 -0.427108,1.623025c0.735532,0.091794 1.459447,-0.11078 2.191494,-0.127153c0.738242,-0.016547 1.489457,0.001916 2.18646,-0.200657c0.388966,-0.315269 0.230205,-0.727731 0.327011,-1.11633c-0.127397,-0.075595 -0.254213,-0.150841 -0.385481,-0.228701c0.011229,-0.065841 -0.000581,-0.135339 0.032333,-0.166169c0.180059,-0.16913 0.371154,-0.328855 0.600197,-0.528119c0.326236,-1.086894 0.585289,-2.230222 0.778127,-3.38644c0.06486,-0.389122 0.154502,-0.776676 0.187416,-1.168062c0.038916,-0.465936 0.029042,-0.935007 0.040271,-1.399898c0.197484,-0.251518 0.381416,-0.485793 0.584515,-0.744453c0.575608,0.363691 1.045311,-0.087091 1.637764,-0.073853c0.003485,0.001916 0.069313,0.038843 0.192838,0.107818c0.532239,-0.259182 1.117916,-0.037101 1.702043,0.026301c0.553149,0.060093 1.09778,0.181846 1.669903,0.280433c0.389935,0.236713 0.272606,0.675999 0.442597,1.022969c0.117716,-0.000871 0.24337,-0.001742 0.394581,-0.002787c-0.08093,0.447821 -0.176574,0.857322 -0.223428,1.271526c-0.046467,0.411069 -0.043563,0.826666 -0.064086,1.2771c0.097,0.010103 0.185867,0.019334 0.33553,0.035011c-0.128946,0.869515 -0.027687,1.710638 0.577738,2.440634c-0.115586,0.420649 -0.228849,0.83224 -0.345404,1.256024c0.043563,0.036578 0.099323,0.083433 0.129526,0.108689c-0.100678,0.33408 -0.19245,0.655968 -0.295452,0.974721c-0.103195,0.319101 -0.217813,0.635066 -0.34947,1.01635c0.139401,-0.049816 0.207165,-0.074027 0.274929,-0.098238c-0.002904,0.079427 -0.005615,0.158854 -0.008519,0.238281c-0.299131,0.215114 -0.531852,0.467155 -0.66254,0.802455c-0.075896,0.194909 -0.224977,0.366827 -0.381028,0.611378c0.084028,0.427268 -0.519848,0.796707 -0.337659,1.330922c0.276672,-0.725641 0.658862,-1.393802 1.154121,-1.988284c0.071056,-0.260924 0.140562,-0.515578 0.210069,-0.770231c0.13669,-0.066189 0.124686,-0.137778 0.009874,-0.213198c0.079962,-0.037275 0.159923,-0.07455 0.342693,-0.15955c-0.255568,0.715364 -0.478222,1.339283 -0.701069,1.963028c0.029816,0.012019 0.059439,0.024211 0.089062,0.036404c0.137271,-0.222082 0.274735,-0.444163 0.424978,-0.686973c0.057309,0.048597 0.121782,0.10329 0.183931,0.155893c-0.131075,0.249602 -0.248404,0.473077 -0.38219,0.727905c-0.075121,0.019857 -0.187804,0.049642 -0.299711,0.079078c-0.140175,0.15119 -0.27822,0.299941 -0.425753,0.459143c0.020329,0.193167 0.043369,0.410895 0.068345,0.647956c0.115586,-0.058873 0.22459,-0.114437 0.333593,-0.170001l-0.013746,-0.011496zm-1.203686,0.450956c0.020136,0.00209 0.040078,0.004006 0.06002,0.006096c0.011617,-0.072111 0.023233,-0.144048 0.03485,-0.215985c-0.024201,-0.002613 -0.048209,-0.005225 -0.072217,-0.008012c-0.007551,0.072634 -0.015102,0.145268 -0.022653,0.217901zm-18.03786,-0.755078c0.000968,-0.009406 0.001936,-0.018812 0.002904,-0.028043c-0.052469,-0.004529 -0.105131,-0.008883 -0.157794,-0.013412c-0.000968,0.009754 -0.001936,0.019508 -0.002904,0.029263c0.052662,0.004006 0.105131,0.008187 0.157794,0.012193z"/>
    <path stroke="null" id="svg_5" d="m18.467479,34.143941c0.070088,0.031353 0.140175,0.062531 0.213941,0.095626c0.15063,-0.263711 0.041046,-0.476387 -0.17367,-0.682444c0.235045,-0.150319 0.443178,-0.283568 0.698939,-0.447124c0.152373,0.17871 0.284416,0.333906 0.440274,0.516797c0.230398,-0.06166 0.286546,-0.301508 0.381609,-0.490147c0.35915,-0.125237 0.553343,0.179407 0.838533,0.225043c0.269701,0.043197 0.539403,0.086046 0.881322,0.14039c0.021104,-0.010451 0.125267,-0.109212 0.213748,-0.098935c0.704748,0.082214 1.448798,-0.109734 2.148125,0.238629c0.065054,0.661542 0.772125,0.612249 1.170578,0.816738c0.210456,0.746194 0.412006,1.433167 0.596906,2.123797c0.246081,0.91846 0.287901,1.849113 0.142498,2.783249c-0.069313,0.445034 -0.187223,0.883798 -0.268153,1.327439c-0.089836,0.492586 -0.160504,0.987784 -0.244532,1.481241c-0.030397,0.178014 -0.030203,0.376058 -0.121395,0.527074c-0.481513,0.797752 -0.551601,1.730321 -1.040084,2.524067c-0.046467,0.075595 -0.063698,0.170524 -0.07396,0.258486c-0.09061,0.777547 -0.296033,1.530186 -0.589355,2.265233c-0.031752,0.079427 -0.01181,0.175401 -0.017812,0.309869c0.157987,-0.084826 0.28248,-0.151712 0.447631,-0.240545c0.127203,0.590824 -0.066022,1.106054 -0.202131,1.625812c-0.129914,0.496244 -0.358182,0.954167 -0.656345,1.387357c-0.082091,0.119314 -0.162247,0.257092 -0.178897,0.392606c-0.076477,0.622003 -0.368831,1.173462 -0.628464,1.741991c-0.239885,0.525506 -0.397679,1.081494 -0.630788,1.733979c0.628271,-0.228352 1.131081,-0.411417 1.634279,-0.593785c0.439886,-0.159376 0.88016,-0.318056 1.32024,-0.476909l-0.015489,-0.014457c0.002323,0.140042 0.004453,0.280084 0.007164,0.446428c0.877837,-0.174356 1.689845,-0.398005 2.498369,-0.6598c0.821883,-0.26615 1.709207,-0.366827 2.537479,-0.620435c0.804264,-0.246293 1.638538,-0.400095 2.473199,-0.719196c0.033495,-0.041455 0.103776,-0.128024 0.150437,-0.185852c0.173476,0.028914 0.325849,0.054345 0.471639,0.078556c0.266023,-0.216682 0.512297,-0.417339 0.654215,-0.532996c1.165544,-0.256918 2.198851,-0.468549 3.220542,-0.718499c0.363797,-0.089007 0.696229,-0.278517 1.050345,-0.404972c0.089255,-0.031875 0.207746,0.002264 0.408908,0.009754c-0.194774,0.192993 -0.3243,0.321365 -0.475511,0.471161c0.021491,0.08622 0.046854,0.188639 0.074734,0.301683c0.12972,0.046158 0.250534,0.089007 0.409296,0.145616c-0.720237,0.691675 -1.221304,1.492737 -1.963419,2.133726c-0.618977,0.534564 -1.133598,1.167017 -1.695266,1.755403c-0.039303,0.041107 -0.117716,0.073853 -0.12275,0.116005c-0.069507,0.565568 -0.651117,0.702997 -1.006782,1.035858c-0.460797,0.431274 -1.090616,0.569748 -1.578325,0.929085c-0.092547,0.068279 -0.263312,0.050513 -0.412781,0.074898c-0.100097,0.268414 -0.300873,0.441028 -0.617041,0.529164c-0.164183,0.04581 -0.297194,0.17662 -0.451503,0.257963c-0.431948,0.227481 -0.876675,0.436325 -1.298362,0.677915c-0.231947,0.132901 -0.432529,0.312308 -0.638726,0.479174c-0.430593,0.348538 -0.847633,0.71101 -1.2881,1.048922c-0.121588,0.093187 -0.306294,0.119489 -0.506489,0.108689c0.109391,-0.132901 0.218588,-0.265627 0.327785,-0.398354c-0.019168,-0.015154 -0.038142,-0.030308 -0.057309,-0.045287c-0.280737,0.159376 -0.569413,0.308476 -0.839695,0.481264c-0.277446,0.177317 -0.535531,0.379019 -0.804071,0.567832c-0.218394,0.153454 -0.313264,0.367349 -0.388386,0.597443c-0.078026,0.238803 -0.174832,0.472555 -0.284222,0.763961c-0.230592,-0.253783 0.110165,-0.613816 -0.343274,-0.738008c-0.05305,0.054171 -0.140175,0.108341 -0.172508,0.181846c-0.123524,0.281826 -0.393032,0.413159 -0.669704,0.518887c-0.249759,0.095626 -0.52314,0.14039 -0.784322,0.212676c-0.372316,0.103116 -0.588193,0.396438 -0.793228,0.643253c-0.270476,0.325894 -0.629045,0.483703 -1.01201,0.685753c-0.042401,-0.099284 -0.075121,-0.176272 -0.116554,-0.273639c-0.381609,0.097193 -0.764767,0.194909 -1.184131,0.301683c-0.180446,-0.0533 -0.408715,-0.120882 -0.702231,-0.207625c-0.163021,0.078904 -0.367863,0.177839 -0.622463,0.300986c-0.06273,-0.025431 -0.186061,-0.075421 -0.321202,-0.130114c-0.126041,0.043894 -0.255181,0.089007 -0.375801,0.131159c-0.073185,-0.018115 -0.14095,-0.019857 -0.187223,-0.048945c-0.393613,-0.24699 -0.786065,-0.495547 -1.172901,-0.751071c-0.15489,-0.102245 -0.258472,-0.283219 -0.511716,-0.201528c-0.049758,0.016025 -0.146371,-0.054693 -0.206778,-0.100851c-0.517138,-0.395741 -1.070481,-0.742885 -1.228662,-1.41871c-0.19458,-0.830498 -0.487515,-1.642185 -0.725851,-2.464845c-0.055373,-0.191251 -0.124105,-0.406366 -0.079381,-0.589257c0.152953,-0.624441 0.049952,-1.218749 -0.184125,-1.830998c0.08093,-0.09162 0.164764,-0.186374 0.209682,-0.237235c0.020329,-0.198567 0.042982,-0.349408 0.049177,-0.500598c0.005034,-0.123669 -0.007357,-0.248035 -0.015295,-0.371878c-0.01607,-0.247686 -0.01878,-0.483528 0.071056,-0.734002c0.120039,-0.334429 0.162828,-0.693417 0.214909,-1.044742c0.034076,-0.230791 0.02575,-0.466807 0.037948,-0.737485c0.00697,-0.005051 0.088481,-0.035185 0.092547,-0.072285c0.042982,-0.381458 0.181414,-0.739227 0.295839,-1.105009c0.117716,-0.376407 0.164377,-0.770231 0.248791,-1.155347c0.061956,-0.282349 0.158375,-0.560168 0.197678,-0.844781c0.134367,-0.970715 0.553149,-1.871931 0.823045,-2.809028c0.128171,-0.44486 0.277059,-0.886411 0.368444,-1.337541c0.0697,-0.343835 -0.093902,-0.700385 0.025944,-1.05258c0.0879,-0.258137 0.14095,-0.52568 0.225558,-0.784688c0.295065,-0.902087 0.593614,-1.803477 0.897972,-2.703126c0.227688,-0.673212 0.469703,-1.342418 0.699326,-2.015108c0.299131,-0.876308 0.599423,-1.752268 0.883258,-2.632582c0.066215,-0.205534 0.100291,-0.428487 0.093515,-0.642034c-0.014134,-0.444337 0.052275,-0.89721 -0.151405,-1.328309c-0.042982,-0.090923 -0.001743,-0.213895 0.000774,-0.322062l-0.017619,0.013586zm5.166536,13.984525c-0.241434,0.232881 -0.240079,0.398528 -0.192257,0.596572c0.27764,-0.123146 0.237562,-0.309172 0.192257,-0.596572zm10.208966,3.526656c-0.024782,-0.042152 -0.049371,-0.08413 -0.07396,-0.126108c-0.118103,0.050164 -0.236207,0.100329 -0.35431,0.150319c0.01181,0.028043 0.023621,0.056087 0.035625,0.084304c0.130882,-0.036404 0.261763,-0.07246 0.392645,-0.108515zm-15.176275,11.877971c0.012004,-0.009406 0.03272,-0.018289 0.033688,-0.028566c0.000968,-0.010277 -0.0182,-0.021947 -0.028461,-0.03292c-0.01181,0.00958 -0.03214,0.018289 -0.033108,0.028566c-0.000774,0.010451 0.017812,0.021947 0.02788,0.03292z"/>
    <path stroke="null" id="svg_6" d="m78.816913,46.315583c0.014134,-0.052603 0.028267,-0.10538 0.056535,-0.211282c0.452471,-0.077511 0.927014,0.058351 1.399234,0.036056c0.461765,-0.021773 0.923336,-0.045113 1.4033,-0.068628c0.09274,-0.09789 0.192838,-0.20327 0.302616,-0.318927c0.266023,0.064621 0.515395,0.125237 0.79226,0.192471c0.246662,0.226262 0.509587,0.467155 0.795164,0.72895c-0.257117,0.302031 -0.370573,0.664329 -0.746181,0.858019c-0.066022,0.03414 -0.125073,0.099109 -0.157407,0.162337c-0.299905,0.585947 -0.901264,0.957128 -1.297394,1.475841c-0.107261,0.14039 -0.300292,0.245074 -0.477834,0.321017c-0.494098,0.211282 -0.939212,0.463846 -1.318498,0.833459c-0.230785,0.225043 -0.572898,0.35655 -0.860799,0.53526c-0.5092,0.315966 -1.060026,0.593089 -1.507656,0.968973c-0.313845,0.263537 -0.605037,0.523242 -1.007557,0.663806c-0.110552,0.038668 -0.22459,0.094755 -0.33824,0.097193c-0.445888,0.00958 -0.720624,0.272943 -0.957024,0.462975c-0.391096,0.149448 -0.712879,0.272246 -1.10049,0.4203c0.012972,-0.284265 0.023621,-0.519758 0.039303,-0.864638c-0.373284,0.248383 -0.40097,0.495199 -0.364184,0.792875c-0.336691,0.078033 -0.640081,0.208321 -0.598261,0.60232c-0.160311,0.100677 -0.305713,0.191948 -0.505134,0.317185c-0.030784,-0.149448 -0.05305,-0.256395 -0.078606,-0.380239c-0.344436,0.001916 -0.341144,0.329726 -0.674931,0.503733c-0.0182,0.000523 -0.172895,0.005051 -0.327785,0.009406l-0.007551,-0.007316c-0.018974,-0.051035 -0.038142,-0.10207 -0.058471,-0.156938c-0.156051,-0.041281 -0.315007,-0.083607 -0.497002,-0.131856c-0.325268,0.202051 -0.633692,0.503559 -1.153153,0.607372c0.042401,-0.177317 0.065054,-0.271898 0.086932,-0.363866c-0.229817,-0.301857 -0.563604,-0.099109 -0.851699,-0.163731c-0.087125,0.060093 -0.181802,0.125411 -0.29642,0.204489c-0.160892,-0.005922 -0.340176,-0.012541 -0.571349,-0.020902c-0.322364,-0.274162 -0.675706,-0.564349 -1.015301,-0.867076c-0.213941,-0.190729 -0.439693,-0.293496 -0.76651,-0.157112c-0.020136,-0.136558 -0.037561,-0.254131 -0.054986,-0.371878c-0.027299,-0.026301 -0.054405,-0.052777 -0.081704,-0.079253c-0.028848,0.076292 -0.05789,0.152583 -0.103582,0.273117c-0.198646,-0.16495 -0.370573,-0.262318 -0.473381,-0.401315c-0.304164,-0.411069 -0.522559,-0.855406 -0.567477,-1.360359c-0.015876,-0.177839 -0.056535,-0.366652 -0.144241,-0.524461c-0.319653,-0.575322 -0.277059,-1.177468 -0.090223,-1.750003c0.185867,-0.5694 0.184125,-1.143154 0.247242,-1.71778c0.048984,-0.446428 0.137077,-0.889197 0.197291,-1.334754c0.047822,-0.353415 0.056535,-0.712229 0.122944,-1.062334c0.128946,-0.678612 0.265442,-1.357224 0.436014,-2.027997c0.417621,-1.642185 0.817236,-3.289421 1.303009,-4.915581c0.251115,-0.840775 0.350438,-1.697923 0.534175,-2.544794c0.060407,-0.278517 0.113263,-0.571142 -0.056728,-0.850703c-0.039884,-0.065492 0.001549,-0.170872 0.007164,-0.296283c0.141724,0.037449 0.247242,0.065318 0.352567,0.093013c0.512297,-0.319798 0.622656,-0.473774 0.624399,-0.797578c0.218201,-0.315966 0.398453,-0.577238 0.583159,-0.844607c-0.095644,-0.153977 -0.183157,-0.294715 -0.256342,-0.412462c-0.126041,-0.044591 -0.227107,-0.080124 -0.316749,-0.111825c-0.031752,-0.298896 0.203293,-0.307256 0.403875,-0.378845c0.138433,0.165298 0.278027,0.331816 0.416072,0.496592c0.202518,-0.325894 0.202518,-0.325894 0.475317,-0.480916c-0.020136,0.177317 -0.036399,0.320146 -0.055567,0.48858c0.068926,0.017767 0.139981,0.036056 0.245306,0.063228c0.008713,-0.085523 0.014908,-0.145964 0.02517,-0.245074c0.11578,0.020205 0.227107,0.039539 0.344242,0.059918c0.030784,-0.083433 0.061956,-0.16826 0.099129,-0.268937c0.300486,-0.220688 0.672802,-0.155022 1.043569,-0.183762c0.18277,0.101374 0.37038,0.205534 0.62285,0.345576c0.563217,-0.125411 1.179097,-0.259008 1.793041,-0.400095c0.463507,-0.106599 0.920625,-0.236713 1.38723,-0.3299c0.400196,-0.079949 0.809685,-0.122624 1.215109,-0.181149c0.71133,-0.102941 1.423435,-0.201354 2.133023,-0.312482c0.114425,-0.017941 0.217813,-0.091794 0.210263,-0.088484c0.501261,-0.048248 0.88016,-0.080472 1.257897,-0.122276c0.453826,-0.050164 0.904942,-0.128546 1.360318,-0.159028c0.856733,-0.057132 1.715402,-0.117573 2.573684,-0.12245c0.835629,-0.004703 1.658674,0.131507 2.48501,0.256047c0.499519,0.075246 0.976579,0.204489 1.446669,0.336519c0.525269,0.147532 1.006782,0.420823 1.482293,0.628448c0.068345,0.161466 0.116361,0.275033 0.175606,0.415423c0.10881,-0.023689 0.201744,-0.044068 0.314426,-0.068453c0.240272,0.278168 0.486353,0.563478 0.732628,0.848613c0.030784,-0.020728 0.061762,-0.041629 0.09274,-0.062183c0.013746,0.106599 0.027493,0.213198 0.039884,0.309869c-0.556634,0.282523 -1.102233,0.559472 -1.73457,0.880314c-0.061569,-0.016025 -0.231366,-0.060093 -0.331464,-0.086046c-1.148119,0.170176 -2.228474,0.350279 -3.315605,0.484573c-0.731466,0.0904 -1.472806,0.11496 -2.209694,0.171046c-0.21975,0.016721 -0.438531,0.044765 -0.658474,0.060789c-1.001555,0.073505 -2.004852,0.214069 -3.004471,0.195083c-0.825755,-0.015676 -1.522565,0.216159 -2.007175,0.432319c-1.124305,0.273465 -2.020922,0.491541 -2.989563,0.727209c-0.24066,0.271201 -0.524301,0.590824 -0.837759,0.944413c0.264668,0.136384 0.246274,0.33948 0.218975,0.562084c-0.094483,0.770231 -0.19942,1.537502 -0.417427,2.289792c-0.038142,0.131507 -0.017231,0.277123 -0.024589,0.441725c0.510555,-0.108167 0.972513,-0.220514 1.441054,-0.302554c1.059445,-0.185678 2.10766,-0.415075 3.186079,-0.525158c0.666993,-0.068105 1.315593,-0.281826 2.008143,-0.438241c0.255181,0.142132 0.21975,0.383896 0.115586,0.600927c-0.117522,0.244899 -0.30823,0.435628 -0.565928,0.606326c-0.709782,0.469768 -1.397878,0.96096 -2.182007,1.335451c-0.237562,0.113392 -0.403487,0.342615 -0.621688,0.496244c-0.733402,0.5161 -1.540571,0.888501 -2.477265,1.009209c-0.152179,0.019508 -0.293129,0.11165 -0.432916,0.167737c-0.365539,-0.093013 -0.72256,-0.183762 -1.082678,-0.275207c-0.280157,0.231662 -0.379673,0.55233 -0.518299,0.855406c-0.096225,0.210411 -0.210843,0.414204 -0.335723,0.656317c0.033301,0.043023 0.0879,0.113915 0.172702,0.223649c-0.095063,0.384419 -0.046467,0.841123 -0.296807,1.138103c-0.130688,0.568006 -0.241434,1.04927 -0.371348,1.614316c0.511523,-0.121579 0.945988,-0.225217 1.380841,-0.328158c0.387418,-0.091794 0.775997,-0.179581 1.162253,-0.275033c0.458667,-0.113218 0.904749,-0.047552 1.421693,0.035011c1.011623,-0.134294 2.099335,-0.278691 3.219961,-0.427442c0.043563,-0.042152 0.110552,-0.106599 0.177736,-0.171395c0.167281,0.195606 0.323719,0.178014 0.498744,0.001916c-0.201744,-0.160247 -0.354891,-0.060441 -0.510555,0.010799z"/>
    <path stroke="null" id="svg_7" d="m57.701591,37.443639c0.029235,-0.064621 0.058277,-0.129243 0.090223,-0.200135c0.087319,0.016199 0.162053,0.029959 0.236981,0.043894c0.03214,-0.021076 0.071056,-0.037449 0.09487,-0.064447c0.543662,-0.612423 1.0699,-1.238432 1.636989,-1.832565c0.191676,-0.200831 0.487128,-0.321539 0.735145,-0.479c0.034463,-0.013412 0.068926,-0.026824 0.016457,-0.006445c0.023233,-0.04581 0.007938,-0.015502 -0.007551,0.014805c-0.054986,-0.01707 -0.109972,-0.03414 -0.223622,-0.069498c0.430593,-0.165647 0.640662,-0.512268 1.006008,-0.740795c0.062149,-0.225914 0.129526,-0.470639 0.202905,-0.736963c0.170379,-0.07664 0.345985,-0.155893 0.520235,-0.234274c-0.030784,-0.129243 -0.059052,-0.248209 -0.085189,-0.358292c0.405036,-0.254305 0.91501,-0.308127 3.030802,-0.328332c0.152179,0.303599 0.273574,0.64064 0.707845,0.781031c-0.109391,0.152932 -0.181414,0.253609 -0.267572,0.374316c0.011036,0.104683 0.024201,0.227655 0.036205,0.342615c-0.404262,0.530209 -1.151023,0.747414 -1.412206,1.355656c-0.14095,0.041107 -0.263893,0.076988 -0.463894,0.135339c0.128946,0.097542 0.198452,0.14997 0.293322,0.221907c-0.077445,0.427268 -0.217813,0.844433 -0.501455,1.222755c-0.11152,0.148751 -0.21762,0.318404 -0.254793,0.491018c-0.087706,0.407759 -0.346178,0.721112 -0.622656,1.041781c0.010649,0.113741 0.022265,0.236365 0.036399,0.388077c-0.249566,0.236016 -0.432916,0.48527 -0.437757,0.872476c-0.00484,0.397657 -0.220718,0.793398 -0.345985,1.189313c-0.016457,0.05208 -0.04395,0.101374 -0.06699,0.151886c-0.219362,0.48318 -0.43524,0.967579 -0.659249,1.449017c-0.270282,0.580548 -0.542501,1.160573 -0.823432,1.737114c-0.1758,0.36073 -0.394194,0.706133 -0.546954,1.074178c-0.128558,0.309521 -0.327011,0.588037 -0.450341,0.893726c-0.121782,0.301857 -0.23853,0.62479 -0.244919,0.940407c-0.009681,0.481961 -0.189353,0.907661 -0.410651,1.320297c-0.215877,0.402882 -0.499519,0.776154 -0.745987,1.166321c-0.217426,0.344183 -0.432336,0.690108 -0.632337,1.042477c-0.078994,0.139171 -0.103195,0.302728 -0.173283,0.44695c-0.126041,0.259531 -0.245887,0.524809 -0.408521,0.765528c-0.206584,0.305689 -0.45886,0.57689 -0.424204,0.97803c0.012004,0.138823 -0.132624,0.291928 -0.216458,0.43319c-0.281899,0.475864 -0.518686,0.970889 -1.051507,1.296434c-0.269508,0.164602 -0.460409,0.433364 -0.712879,0.636286c-0.09487,0.200309 -0.059439,0.475168 -0.435627,0.573232c-0.140756,-0.051732 -0.322945,-0.118444 -0.461571,-0.169305c-0.749666,0.127327 -1.389166,-0.031004 -1.98704,-0.385464c-0.118491,0.043197 -0.226526,0.082736 -0.390709,0.142655c-0.229817,-0.110257 -0.488483,-0.245074 -0.75741,-0.360904c-0.327979,-0.141261 -0.59768,-0.367001 -1.000974,-0.406366c-0.241241,-0.023515 -0.457699,-0.252738 -0.69681,-0.396438c0.015295,-0.338087 0.029816,-0.658233 0.045112,-0.994577c-0.331076,-0.368568 -0.791873,-0.685057 -0.860992,-1.233903c-0.014715,-0.11705 -0.133592,-0.221907 -0.195354,-0.336345c-0.209295,-0.388251 -0.414523,-0.778244 -0.640468,-1.204292c0.164183,-0.48527 0.330883,-0.965837 0.487709,-1.449017c0.03911,-0.120534 0.073573,-0.25117 0.063698,-0.374142c-0.065247,-0.808551 -0.143079,-1.616406 -0.217233,-2.424435c-0.023233,-0.25326 -0.042788,-0.507043 -0.073573,-0.75978c-0.060988,-0.501469 -0.119071,-1.003635 -0.196323,-1.503188c-0.084221,-0.545363 -0.182382,-1.089332 -0.288288,-1.63156c-0.035237,-0.180626 -0.146564,-0.351499 -0.166313,-0.531951c-0.099904,-0.908183 -0.278801,-1.803303 -0.467573,-2.699468c-0.175606,-0.833634 -0.26854,-1.681202 -0.411425,-2.520931c-0.097,-0.570445 -0.21762,-1.137581 -0.325655,-1.696704c-0.351793,-0.206057 -0.670866,-0.39278 -1.001942,-0.586644c0.052856,-0.032572 0.116167,-0.07124 0.174057,-0.106948c-0.089836,-0.211282 -0.173864,-0.408979 -0.257891,-0.606501c0.027687,0.001916 0.055179,0.003658 0.082866,0.005574c0.046273,-0.192645 0.09274,-0.385116 0.139013,-0.577761c-0.019555,-0.003484 -0.03911,-0.006967 -0.058471,-0.010451c0.096612,-0.210063 0.193031,-0.420126 0.294677,-0.641337c0.525657,0.032224 1.067576,-0.188116 1.659448,-0.111302c0.560894,0.072808 1.14444,0.003135 1.727793,-0.003832c0.085383,0.098587 0.169798,0.195954 0.281125,0.324675c0.103389,-0.07124 0.192644,-0.132901 0.307069,-0.211805c0.044337,0.090749 0.087319,0.17871 0.141143,0.289142c0.175606,-0.083085 0.349857,-0.165647 0.511523,-0.242287c0.442403,0.043894 0.757023,0.262666 1.066608,0.535434c0.047435,0.226436 0.098936,0.471336 0.160504,0.764832c0.109584,0.072808 0.248017,0.17244 0.395162,0.260227c0.100291,0.059918 0.214135,0.101374 0.31946,0.155022c0.505714,0.257266 0.911138,0.54484 1.152572,1.088113c0.260214,0.585425 0.527399,1.170849 0.762638,1.766028c0.072604,0.183587 0.105906,0.389296 0.105325,0.584728c-0.001936,0.628622 0.3152,1.214395 0.248017,1.86026c-0.048016,0.460362 0.112489,0.936749 0.083834,1.401117c-0.021104,0.34366 -0.056728,0.67478 0.06273,1.005551c0.011617,0.032224 0.04395,0.058177 0.091772,0.118966c0.47706,-0.15328 0.465637,-0.618345 0.719656,-0.908706c0.052275,0.081169 0.110552,0.171917 0.205616,0.319449c0.310941,-0.322759 0.644534,-0.590128 0.864477,-0.918983c0.239885,-0.358118 0.58858,-0.62357 0.849569,-0.95887c0.238724,-0.306734 0.526818,-0.582986 0.754699,-0.895468c0.098161,-0.134642 0.099517,-0.326591 0.161666,-0.554072c0.141337,-0.146138 0.336304,-0.347492 0.531271,-0.548846c0.024782,0.014631 0.049371,0.029437 0.074153,0.044068c-0.028655,-0.011148 -0.05789,-0.021773 -0.087319,-0.032572zm5.302451,-1.452501c-0.143079,0.120882 -0.285965,0.241938 -0.434853,0.367698c0.030784,0.072285 0.06486,0.152583 0.099129,0.233055c-0.52585,0.187942 -0.72043,0.735047 -0.462152,1.301834c0.207939,-0.121927 0.41433,-0.242983 0.638532,-0.374491c-0.071636,-0.058351 -0.113069,-0.092142 -0.154696,-0.125933l0.015102,0.014805c0.050533,-0.07246 0.093321,-0.150667 0.15276,-0.216508c0.367863,-0.407411 0.630401,-0.85349 0.680546,-1.452153c-0.173089,0.063925 -0.293709,0.108341 -0.41433,0.152757c-0.022265,-0.070892 -0.044531,-0.141784 -0.092159,-0.293322c-0.109778,0.166692 -0.169217,0.257266 -0.252664,0.383896c0.119652,0.004529 0.172315,0.006445 0.224784,0.008361zm-1.361286,1.795639c-0.116167,0.262666 -0.19884,0.449737 -0.285578,0.645691c0.302035,0.070369 0.399228,-0.051035 0.462345,-0.240719c-0.045112,-0.10329 -0.095257,-0.218075 -0.176768,-0.404972z"/>
    <path stroke="null" id="svg_8" d="m47.958262,6.905758c0.060794,-0.061312 0.121588,-0.122624 0.216458,-0.218075c-0.22459,-0.11914 -0.40736,-0.216159 -0.662927,-0.351847c1.205622,0.000697 2.195947,-0.460536 3.220348,-0.821789c1.307074,-0.460885 2.661003,-0.768315 4.039714,-0.99301c0.452084,-0.073679 0.902619,-0.156764 1.356639,-0.217901c1.007944,-0.135688 2.016275,-0.272072 3.027317,-0.385638c0.795164,-0.089355 1.595944,-0.203444 2.392657,-0.194213c0.494485,0.005748 0.990325,-0.0479 1.487327,0.000697c0.496615,0.048597 1.003491,0.020902 1.497395,0.081169c0.866026,0.106077 1.725857,0.253086 2.588011,0.384593c0.353923,0.053996 0.707071,0.111999 1.052668,0.166866c0.224977,0.202573 0.431948,0.388948 0.679578,0.6119c-0.193225,0.075595 -0.318104,0.12454 -0.45189,0.176794c0.027299,0.22034 0.054792,0.442944 0.081704,0.661716c-0.177736,0.304295 -0.358376,0.586818 -0.800392,0.620087c-0.038529,0.071763 -0.078994,0.147358 -0.072604,0.135513c-0.397292,0.259705 -0.699133,0.49694 -1.041245,0.669903c-0.383158,0.19369 -0.788388,0.379368 -1.210268,0.475342c-0.394968,0.089878 -0.757216,0.185503 -1.054024,0.445557c-0.067183,0.058873 -0.170379,0.089007 -0.262151,0.120011c-0.465443,0.158157 -0.932435,0.312134 -1.428276,0.477432c0.0091,0.485967 -0.110359,0.974721 0.007938,1.480196c0.062924,0.268937 0.031172,0.573406 -0.036786,0.845826c-0.123718,0.496418 -0.126041,0.991616 -0.05789,1.485944c0.039497,0.286181 -0.193806,0.558078 -0.023233,0.840427c-0.113069,0.654226 -0.04608,1.337715 -0.390709,1.954493c0.122556,0.390167 -0.371735,0.731389 -0.110552,1.132529c-0.175412,0.088833 -0.209875,0.222953 -0.171734,0.408456c0.248985,-0.101025 0.115006,-0.285658 0.15973,-0.418384c0.134173,-0.089355 0.268153,-0.17871 0.436014,-0.290535c0.204067,0.497115 -0.17154,0.913409 -0.123718,1.366804c-0.160311,0.014805 -0.272218,0.025256 -0.410264,0.037972c-0.073573,0.268066 -0.161666,0.525506 -0.212005,0.788695c-0.064086,0.335648 -0.05092,0.690282 -0.36128,0.948245c0.093708,0.515926 -0.390709,0.915673 -0.343855,1.436128c0.021104,0.234797 -0.138045,0.480393 -0.198065,0.724422c-0.028074,0.114263 -0.014715,0.236887 0.067183,0.375013c0.189159,-0.252563 0.378511,-0.504953 0.636403,-0.84931c0.058277,0.361775 0.045305,0.593611 -0.082091,0.848265c-0.255181,0.509656 -0.461377,1.038297 -0.44918,1.604039c-0.171927,0.3299 -0.34037,0.65353 -0.548696,1.053625c-0.011036,0.242113 -0.02575,0.568703 -0.03698,0.813603c-0.154115,0.301334 -0.269895,0.527945 -0.370767,0.725467c-0.217233,0.201528 -0.412974,0.3832 -0.672221,0.623745c-0.426721,0.883449 -0.556828,1.926101 -0.815106,2.939316c0.136496,0.392954 -0.039884,0.743756 -0.201937,1.15465c-0.161085,0.010277 -0.345404,0.021947 -0.552762,0.035185c-0.010068,0.028217 -0.030978,0.086742 -0.077251,0.216159c-0.062537,-0.16495 -0.104357,-0.275381 -0.167862,-0.442944c-0.2364,0.219469 -0.426527,0.396089 -0.596325,0.553549c-0.181995,-0.014283 -0.331851,-0.025953 -0.553343,-0.043197c-0.061569,-0.03832 -0.189353,-0.117573 -0.328947,-0.203967c-0.201163,0.065666 -0.387224,0.126282 -0.592453,0.193167c-0.556247,-0.322236 -0.984711,-0.774586 -1.360318,-1.189313c-0.177929,-0.518365 -0.324881,-0.986913 -0.500681,-1.446579c-0.169217,-0.442247 -0.360118,-0.878224 -0.354891,-1.354785c0.009874,-0.903306 -0.024782,-1.810444 0.056728,-2.708699c0.074541,-0.821441 0.286739,-1.632257 0.419944,-2.450214c0.05789,-0.355156 0.069894,-0.716409 0.102227,-1.074875c0.006583,-0.07246 -0.008713,-0.152409 0.020329,-0.216159c0.388579,-0.850878 0.357989,-1.776305 0.587032,-2.655922c0.141143,-0.541705 0.225171,-1.095254 0.351793,-1.640443c0.31946,-1.375861 0.651311,-2.749458 0.971351,-4.125319c0.064666,-0.27782 0.099517,-0.561039 0.121007,-0.84931c0.206584,-0.428487 0.360893,-0.866728 0.340951,-1.347469c-0.513459,-0.018812 -1.017818,-0.053125 -1.521984,-0.051906c-0.604844,0.001568 -1.209494,0.047029 -1.814338,0.047726c-0.553924,0.000697 -1.058864,-0.203444 -1.557028,-0.390167c-0.444146,-0.166344 -0.877449,-0.364388 -1.291586,-0.584728c-0.44492,-0.236887 -0.861961,-0.516449 -1.216658,-0.732086c-0.074928,-0.104857 -0.105325,-0.132901 -0.117135,-0.166169c-0.084028,-0.238629 -0.133979,-0.491541 -0.254406,-0.713622c-0.108229,-0.199438 -0.292741,-0.365607 -0.443565,-0.546234l-0.01607,0.013586zm11.691066,18.588495c0.034657,0.020902 0.069313,0.041629 0.10397,0.062357c0.192257,-0.204141 0.162828,-0.449215 0.125073,-0.82597c-0.100872,0.336171 -0.164957,0.549892 -0.229043,0.763612zm0.541726,-1.555442c-0.244532,0.206405 -0.244532,0.206405 -0.165151,0.552156c0.065828,-0.219643 0.115393,-0.385812 0.165151,-0.552156zm0.168442,-0.634196c0.059245,-0.053125 0.08364,-0.065318 0.082866,-0.076117c-0.001936,-0.029959 -0.014521,-0.059396 -0.02304,-0.089007c-0.01394,0.038494 -0.02788,0.076814 -0.059826,0.165124z"/>
    <path stroke="null" id="svg_9" d="m35.481132,34.225458c0.095451,-0.091097 0.190127,-0.182542 0.286933,-0.27242c0.013166,-0.012193 0.036205,-0.015502 0.070475,-0.029088c0.036786,0.029088 0.082672,0.059396 0.120233,0.096671c0.03911,0.038843 0.070281,0.084478 0.109778,0.133075c0.122944,-0.00958 0.241434,-0.018812 0.38219,-0.029611c0.082091,-0.166692 0.160892,-0.326416 0.238336,-0.483703c0.503198,0.053822 0.082479,0.451653 0.32856,0.617126c0.244338,-0.117573 0.500681,-0.240893 0.84105,-0.404624c0.350244,0.044068 0.780256,0.111128 1.21356,0.146487c0.192838,0.015851 0.39613,-0.015851 0.587806,-0.053822c0.615492,-0.121927 1.190714,-0.060615 1.747542,0.276949c0.030978,0.426397 0.173864,0.825795 0.594776,1.098564c0.186642,0.454963 0.387611,0.905745 0.55586,1.366107c0.131075,0.358292 0.270476,0.724073 0.313845,1.095254c0.034269,0.292974 -0.07183,0.599185 -0.131269,1.006944c0.067377,0.315095 0.145209,0.740795 -0.060407,1.163185c-0.030784,0.063228 -0.026718,0.143874 -0.024201,0.215985c0.026331,0.764483 -0.275316,1.472009 -0.464475,2.199218c-0.054018,0.207276 -0.042207,0.434932 -0.130301,0.627228c-0.151017,0.3299 -0.357214,0.639247 -0.592259,1.047877c0.050339,0.286529 -0.243177,0.547627 -0.48887,0.820918c-0.133979,0.148925 -0.255568,0.296631 -0.369412,0.461407c-0.331851,0.480567 -0.843761,0.814474 -1.353154,1.131658c-0.612395,0.381458 -1.339988,0.521326 -2.043574,0.696204c-0.203873,0.050687 -0.442016,0.014109 -0.660217,-0.01167c-0.365152,-0.043023 -0.726626,-0.109734 -1.064479,-0.216159c-0.302809,-0.117224 -0.605812,-0.234274 -1.013365,-0.392083c-0.190127,-0.17244 -0.469896,-0.426223 -0.749859,-0.680179c-0.456924,-0.330597 -0.991293,-0.521152 -1.680358,-0.49485c-0.401938,-0.346273 -0.841631,-0.722157 -1.27629,-1.103093c-0.070862,-0.062183 -0.13882,-0.138997 -0.173476,-0.221037c-0.328947,-0.77807 -0.726239,-1.529664 -0.929531,-2.354065c-0.216071,-0.875263 -0.277059,-1.747216 -0.233496,-2.637111c0.02517,-0.514359 -0.018587,-1.03133 -0.027493,-1.547256c-0.00213,-0.126108 0.010261,-0.252563 0.012585,-0.304992c0.166506,-0.255873 0.292548,-0.449563 0.416072,-0.639595c-0.094483,-0.079427 -0.133592,-0.119314 -0.18064,-0.149448c-0.031559,-0.020205 -0.074347,-0.026127 -0.112295,-0.038494c0.073573,-0.111302 0.147339,-0.222604 0.231947,-0.350279c-0.105712,-0.035881 -0.177929,-0.060267 -0.272993,-0.09249c0.00697,-0.152235 0.014134,-0.311263 0.022072,-0.486489c0.149856,-0.137778 0.304552,-0.276949 0.455182,-0.419255c0.165345,-0.156067 0.334755,-0.309521 0.487321,-0.475342c0.100291,-0.108864 0.161085,-0.247686 0.262731,-0.354982c0.124105,-0.130985 0.272799,-0.242983 0.427108,-0.377452c0.060988,0.105728 0.104163,0.180975 0.171347,0.297676c0.096419,-0.06375 0.186448,-0.123146 0.333593,-0.220514c0.31249,0.096671 0.702811,0.217553 1.11656,0.345576c0.092934,-0.029088 0.204454,-0.063925 0.34037,-0.106425c0.623624,0.244377 1.263125,0.49485 1.967098,0.770928c-0.006776,-0.272594 -0.012391,-0.495373 -0.017425,-0.689063c0.177349,-0.179581 0.264861,0.294019 0.430206,0.007664l-0.015295,0.012889zm1.203298,9.792494c0.36128,-0.404624 0.660798,-0.686624 0.891002,-1.00886c0.490419,-0.686276 0.893713,-1.423239 1.089455,-2.2189c0.151598,-0.616429 0.151598,-1.256024 -0.402326,-1.767596c-0.020136,-0.018637 -0.019361,-0.055738 -0.02788,-0.08291c0.078026,-0.05957 0.152953,-0.116702 0.219556,-0.167737c-0.14095,-0.43319 -0.813558,-0.455485 -0.846084,-0.93762c0.073379,-0.12123 0.138433,-0.228701 0.172508,-0.285135c-0.070668,-0.230442 -0.123912,-0.404276 -0.17851,-0.582464c-0.247823,-0.122101 -0.457311,-0.044416 -0.693712,0.144048c-0.008713,0.1916 -0.018974,0.41612 -0.026525,0.58525c-0.660798,0.892159 -1.03079,1.847545 -1.268352,2.835504c-0.150243,0.13952 -0.289837,0.268937 -0.41917,0.388774c-0.130301,0.74933 -0.095063,1.469919 0.206778,2.166472c0.092934,0.214592 0.17851,0.45862 0.557409,0.447821c0.164183,-0.120708 0.347533,-0.255699 0.543275,-0.399747c0.054211,0.262143 0.104744,0.506346 0.182576,0.883101z"/>
    <path stroke="null" id="svg_10" d="m49.375114,12.94603c0.005421,0.011496 0.049371,0.106599 0.093127,0.201006c0.121782,0.030133 0.233883,0.058002 0.319847,0.079427c0,0.285832 0,0.546582 0,0.660671c0.309586,0.35655 0.523527,0.602669 0.74831,0.861677c-0.033495,0.304295 -0.052469,0.582812 -0.097,0.856974c-0.093321,0.574451 -0.183157,1.150818 -0.307843,1.718302c-0.077445,0.35237 -0.223622,0.687843 -0.325268,1.035162c-0.101259,0.345925 -0.181608,0.698643 -0.27822,1.046135c-0.14153,0.508785 -0.279188,1.018963 -0.436982,1.522174c-0.179091,0.570619 -0.378899,1.134097 -0.59981,1.789543c-0.011617,0.008709 -0.108616,0.080646 -0.218201,0.162163c0.169604,0.815519 -0.303196,1.488905 -0.433497,2.258091c-0.090417,0.046681 -0.179478,0.09249 -0.306488,0.157983c-0.063311,0.307082 -0.125848,0.664677 -0.548503,0.743233c-0.051114,0.702823 -0.394775,1.279364 -0.726045,1.820895c-0.261183,0.427093 -0.41007,0.942845 -0.785871,1.287028c-0.129333,0.118444 -0.286352,0.202051 -0.452665,0.316836c-0.175606,0.376929 -0.362635,0.77807 -0.587225,1.260379c-0.055373,-0.172266 -0.077832,-0.242635 -0.113263,-0.352892c-0.098548,0.04581 -0.195548,0.090923 -0.297969,0.138649c-0.059245,-0.053648 -0.119846,-0.108689 -0.200195,-0.181671c-0.080543,0.101896 -0.161666,0.204838 -0.254019,0.321888c-0.36612,-0.013412 -0.726626,-0.02665 -1.085389,-0.039888c-0.612588,-0.431622 -1.024788,-1.011821 -1.163221,-1.799471c-0.018393,-0.104683 -0.057696,-0.209192 -0.10668,-0.301857c-0.374833,-0.711184 -0.491387,-1.517471 -0.538048,-2.299198c-0.089449,-1.495872 -0.055179,-2.991745 0.208907,-4.492842c0.308424,-1.751919 0.85499,-3.423541 1.326823,-5.122509c0.178317,-0.641859 0.295065,-1.304098 0.412006,-1.962157c0.035625,-0.200657 -0.021491,-0.418733 -0.038529,-0.665897c0.048016,-0.139345 0.109972,-0.318752 0.173089,-0.501643c0.122556,-0.075595 0.244338,-0.150667 0.383545,-0.236365c0.073185,-0.802629 0.40097,-1.388751 1.245699,-1.521477c0.506683,0.185155 1.151217,-0.076117 1.560319,0.439286c1.225951,-0.168956 2.339801,-0.018637 3.429255,0.800365z"/>
    <path stroke="null" id="svg_11" d="m84.985004,24.864586c-0.134754,-0.889197 0.122944,-1.775086 0.69042,-2.254782c-0.211424,0.75978 -0.409489,1.473925 -0.612201,2.187025c-0.00697,0.024211 -0.061569,0.037275 -0.093902,0.055564l0.015683,0.012193z"/>
    <path stroke="null" id="svg_12" d="m87.552686,16.542011c0.097387,-0.229746 0.194967,-0.459665 0.283061,-0.667638c0.139594,-0.031004 0.246274,-0.054693 0.353148,-0.078382l-0.006196,-0.005225c0,0.05208 0.024976,0.125062 -0.003872,0.153106c-0.206778,0.201006 -0.424397,0.393128 -0.638726,0.587863l0.012585,0.010277z"/>
    <path stroke="null" id="svg_13" d="m56.719978,37.630536c-0.071443,0.351499 -0.128558,0.632802 -0.185867,0.91428c-0.094483,-0.306908 -0.085383,-0.596572 0.185867,-0.91428z"/>
    <path stroke="null" id="svg_14" d="m15.411895,5.32924c0.011036,-0.243158 0.018974,-0.416817 0.026718,-0.590998c0.127397,-0.046332 0.225171,-0.081691 0.423817,-0.153977c-0.171927,0.284439 -0.288482,0.477258 -0.450535,0.744975z"/>
    <path stroke="null" id="svg_15" d="m86.248515,19.594545c0.035431,0.223998 0.070668,0.448169 0.112489,0.711706c-0.019942,0.015502 -0.076864,0.05957 -0.18064,0.140042c0.014134,-0.310392 0.02575,-0.568006 0.037367,-0.825447c0.010261,-0.008883 0.020523,-0.017592 0.030784,-0.026301z"/>
    <path stroke="null" id="svg_16" d="m85.998756,21.072825c-0.043369,0.204489 -0.086545,0.408979 -0.129914,0.613468c-0.067183,-0.228875 -0.060407,-0.444337 0.147339,-0.599359l-0.017425,-0.014109z"/>
    <path stroke="null" id="svg_17" d="m86.391788,18.777285c0.160892,0.283742 -0.053243,0.439112 -0.197871,0.607372c0.061181,-0.187942 0.122363,-0.375884 0.197871,-0.607372z"/>
    <path stroke="null" id="svg_18" d="m15.251584,3.598222c0.13185,-0.202747 0.34037,-0.193342 0.599229,-0.202225c-0.191095,0.218946 -0.39826,0.216159 -0.613363,0.188639l0.014134,0.013586z"/>
    <path stroke="null" id="svg_19" d="m84.969321,24.852393c-0.00697,0.153977 -0.01394,0.307779 -0.02091,0.461756c-0.102614,-0.163557 -0.164377,-0.326416 0.036593,-0.449563l-0.015683,-0.012193z"/>
    <path stroke="null" id="svg_20" d="m85.620632,22.163202c0.040852,-0.089529 0.081704,-0.179059 0.122363,-0.268588c0.021685,0.005574 0.043563,0.010973 0.065247,0.016547c-0.035625,0.093187 -0.071056,0.186374 -0.106874,0.279562c-0.026718,-0.009057 -0.053631,-0.018289 -0.080736,-0.027521z"/>
    <path stroke="null" id="svg_21" d="m77.463759,20.078074c-0.051888,-0.072808 -0.103582,-0.145616 -0.155277,-0.218424c0.027106,-0.015502 0.054018,-0.031004 0.081123,-0.046681c0.052662,0.072285 0.105325,0.144571 0.157987,0.216682c-0.028074,0.016373 -0.055954,0.032398 -0.083834,0.048423z"/>
    <path stroke="null" id="svg_22" d="m71.149105,54.548106c-0.056341,0.079601 -0.112876,0.159202 -0.17154,0.242287c-0.062537,-0.161466 -0.017812,-0.247686 0.182189,-0.231487l-0.010649,-0.010799z"/>
    <path stroke="null" id="svg_23" d="m85.470583,15.209347c0.029429,-0.084826 0.058664,-0.169653 0.088093,-0.254479c0.037754,0.01498 0.075702,0.029959 0.113457,0.044939c-0.044144,0.078208 -0.088287,0.156415 -0.132237,0.234623c-0.023233,-0.008535 -0.046273,-0.016721 -0.069313,-0.025082z"/>
    <path stroke="null" id="svg_24" d="m88.188895,15.795991c-0.005034,-0.101896 -0.010068,-0.203618 -0.01607,-0.325546c0.19884,0.129243 0.128558,0.225914 0.009874,0.320146l0.006196,0.0054z"/>
    <path stroke="null" id="svg_25" d="m87.360816,17.191186c0.065054,-0.051558 0.130301,-0.102941 0.195354,-0.154499c0.017038,0.009754 0.033882,0.019508 0.05092,0.029263c-0.046273,0.070892 -0.092547,0.141958 -0.138626,0.21285c-0.036012,-0.029088 -0.07183,-0.058351 -0.107648,-0.087613z"/>
    <path stroke="null" id="svg_26" d="m54.000892,14.207106c-0.042014,-0.047726 -0.084028,-0.095452 -0.126041,-0.143177c0.024395,-0.016025 0.04879,-0.032049 0.073185,-0.048248c0.038529,0.04999 0.077058,0.099806 0.115393,0.149796c-0.020716,0.013935 -0.041627,0.027695 -0.062537,0.041629z"/>
    <path stroke="null" id="svg_27" d="m55.257627,34.653422c-0.052856,-0.004355 -0.106099,-0.006793 -0.158181,-0.014631c-0.012004,-0.001742 -0.020329,-0.022818 -0.030397,-0.035011c0.065828,-0.010103 0.13185,-0.020379 0.197678,-0.030482c-0.003098,0.02665 -0.006196,0.0533 -0.0091,0.080124z"/>
    <path stroke="null" id="svg_28" d="m61.494256,34.575215c-0.029042,-0.100851 -0.038335,-0.132726 -0.053243,-0.184458c0.068926,-0.006967 0.13456,-0.013586 0.290224,-0.029437c-0.11094,0.100154 -0.156826,0.14161 -0.236981,0.213895z"/>
    <path stroke="null" id="svg_29" d="m86.016181,21.086934c0.002904,-0.063054 0.005615,-0.125933 0.008519,-0.188987c0.022653,0.006096 0.045112,0.012193 0.067571,0.018115c-0.031172,0.052255 -0.062537,0.104509 -0.093708,0.156764l0.017619,0.014109z"/>
    <path stroke="null" id="svg_30" d="m77.333071,20.673078c0.016263,-0.004877 0.032527,-0.009754 0.04879,-0.014457c0.004453,0.019508 0.0091,0.039191 0.013553,0.058699c-0.017619,-0.002439 -0.037754,-0.001045 -0.052082,-0.008535c-0.008325,-0.004529 -0.007164,-0.02334 -0.010261,-0.035707z"/>
    <path stroke="null" id="svg_31" d="m43.14623,10.5047c-0.044918,-0.001568 -0.089836,-0.003309 -0.134754,-0.005051c0.000387,-0.009754 0.000774,-0.019334 0.001355,-0.029088c0.044918,0.001568 0.089836,0.003309 0.134754,0.005051c-0.000581,0.009754 -0.000968,0.019334 -0.001355,0.029088z"/>
    <path stroke="null" id="svg_32" d="m87.279693,18.056347c-0.000387,-0.08622 -0.000581,-0.115134 -0.000581,-0.144048c0.008713,0.001045 0.017619,0.00209 0.026331,0.003135c-0.005228,0.028217 -0.010455,0.056609 -0.02575,0.140913z"/>
    <path stroke="null" id="svg_33" d="m87.079498,18.928997c0.013359,-0.049293 0.026718,-0.098413 0.012004,-0.04372c0.039497,-0.04041 0.005808,-0.005922 -0.02788,0.028566l0.015876,0.015154z"/>
    <path stroke="null" id="svg_34" d="m62.85438,28.86763c0.004647,-0.029785 0.009487,-0.05957 0.014521,-0.089181c-0.00484,0.029785 -0.009681,0.059396 -0.014521,0.089181z"/>
    <path stroke="null" id="svg_35" d="m18.485098,35.724117c-0.034269,-0.040062 -0.068732,-0.080124 -0.024976,-0.029088c-0.011229,-0.064796 -0.001936,-0.010973 0.007357,0.042849l0.017619,-0.01376z"/>
    <path stroke="null" id="svg_36" d="m35.497008,35.806157c-0.019748,-0.013238 -0.03969,-0.026476 -0.049177,-0.03292c0.006583,0.009057 0.019942,0.027695 0.033301,0.045984l0.015876,-0.013064z"/>
    <path stroke="null" id="svg_37" d="m77.400061,20.430095c0.016263,-0.024908 0.032527,-0.049816 0.01607,-0.024734c0.021685,-0.007316 -0.005034,0.001742 -0.031946,0.010625l0.015876,0.014109z"/>
    <path stroke="null" id="svg_38" d="m71.28715,54.454048c-0.045886,0.031353 -0.091966,0.062705 -0.138045,0.094058l0.010649,0.010799c0.040078,-0.037275 0.079962,-0.074724 0.120039,-0.111999l0.007357,0.007141z"/>
    <path stroke="null" id="svg_39" d="m77.384378,20.415986c-0.011036,0.023689 -0.021878,0.047552 -0.024395,0.052951c0.003485,-0.003309 0.021878,-0.021076 0.040271,-0.038843l-0.015876,-0.014109z"/>
    <path stroke="null" id="svg_40" d="m24.770711,53.629646c0.012391,-0.021076 0.024589,-0.042326 0.024589,-0.042326s-0.019942,0.01376 -0.040078,0.027869l0.015489,0.014457z"/>
    <path stroke="null" id="svg_41" d="m87.063622,18.913669c-0.016263,0.02125 -0.03272,0.042675 -0.033301,0.043545c0.000968,-0.000523 0.02517,-0.014457 0.049371,-0.028217l-0.01607,-0.015328z"/>
    <polygon stroke="null" id="svg_42" points="86.2661361694336,18.615642726421356 86.30465698242188,18.606939494609833 86.29923248291016,18.635151088237762 "/>
    <path stroke="null" id="svg_43" d="m87.479307,17.576999c-0.015102,0.011322 -0.030203,0.022644 -0.045499,0.03414c0.002517,-0.024908 0.005034,-0.049816 0.007551,-0.074724c0.012585,0.013412 0.025363,0.026998 0.037948,0.040584z"/>
    <path stroke="null" id="svg_44" d="m15.23745,3.584636c0.004647,0.004529 0.009293,0.009057 0.014134,0.013586l-0.014134,-0.013586z"/>
    <path stroke="null" id="svg_45" d="m47.974912,6.892346c-0.0182,-0.014283 -0.036593,-0.028566 -0.045112,-0.035359c0.005615,0.00958 0.017038,0.029088 0.028461,0.048771l0.016651,-0.013412z"/>
    <path stroke="null" id="svg_46" d="m62.690004,37.393126c-0.01607,0.028043 -0.032333,0.056261 -0.014327,0.025082c-0.036399,0.012715 -0.003485,0.001219 0.029623,-0.010451l-0.015295,-0.014631z"/>
    <path stroke="null" id="svg_47" d="m63.003849,37.585074c0.045499,-0.037972 0.091191,-0.075769 0.13669,-0.113741c-0.045499,0.037972 -0.090998,0.075769 -0.13669,0.113741z"/>
   </g>
   <path stroke="null" id="svg_48" d="m48.338903,59.699355c-0.521978,-0.116005 -1.043956,-0.231836 -1.56574,-0.348015c-1.054024,-0.234797 -1.844929,-0.803326 -2.266809,-1.680679c-0.380641,-0.791307 -0.697584,-1.625986 -0.880354,-2.47007c-0.174444,-0.805416 -0.86138,-1.003461 -1.490812,-1.056586c-0.279769,-0.023515 -0.687323,0.569748 -0.932435,0.939188c-0.611039,0.921073 -1.052087,1.953448 -1.784715,2.780811c-0.357989,0.404276 -1.208913,0.466807 -1.848026,0.652833c-0.307649,0.089529 -0.708039,0.023689 -0.945795,0.178362c-0.28732,0.186897 -0.644534,0.558601 -0.605231,0.802629c0.037754,0.234797 0.530303,0.562258 0.844729,0.582986c1.450154,0.096148 2.168454,1.014434 2.790142,1.972956c0.461765,0.711881 0.69681,1.540289 1.075708,2.299372c0.126622,0.253783 0.435433,0.664851 0.575221,0.638376c0.399809,-0.076117 0.89139,-0.259182 1.101071,-0.545711c0.466024,-0.637157 0.75741,-1.375164 1.166512,-2.049422c0.442597,-0.729473 1.062736,-1.143154 2.069518,-1.279713c0.949473,-0.12872 1.836603,-0.629841 2.751033,-0.967057c-0.0182,-0.150145 -0.036205,-0.300115 -0.054018,-0.45026z"/>
   <path stroke="null" id="svg_49" d="m99.184893,24.028862c-0.398647,-0.115134 -0.797101,-0.230268 -1.195554,-0.345576c-0.804845,-0.233055 -1.385487,-0.712751 -1.661191,-1.414529c-0.248598,-0.632976 -0.445308,-1.296608 -0.537273,-1.960937c-0.087706,-0.634021 -0.609684,-0.820744 -1.095263,-0.892333c-0.215877,-0.031701 -0.56767,0.409675 -0.780063,0.684882c-0.529335,0.686102 -0.93321,1.466784 -1.551413,2.07433c-0.302035,0.296806 -0.966898,0.30447 -1.474355,0.41821c-0.244338,0.054867 -0.551407,-0.015502 -0.745213,0.093187c-0.23427,0.131333 -0.533788,0.403056 -0.517718,0.594482c0.015489,0.18411 0.378511,0.462278 0.621494,0.493457c1.12082,0.144397 1.624211,0.892159 2.050157,1.66657c0.316362,0.575148 0.449761,1.229897 0.699133,1.837791c0.083253,0.203096 0.298937,0.53735 0.408908,0.523416c0.3152,-0.039888 0.707845,-0.158505 0.887711,-0.371007c0.399809,-0.472555 0.670091,-1.031852 1.027692,-1.535934c0.387224,-0.545363 0.893519,-0.836943 1.68365,-0.894597c0.745213,-0.054519 1.4639,-0.400966 2.194398,-0.619042c-0.005034,-0.117573 -0.010068,-0.234971 -0.015102,-0.35237z"/>
   <path stroke="null" id="svg_50" d="m47.476555,3.21032c-0.393807,-0.087613 -0.787807,-0.174878 -1.181614,-0.262666c-0.795358,-0.177143 -1.392264,-0.606326 -1.710755,-1.268391c-0.287127,-0.597095 -0.526431,-1.22711 -0.664283,-1.864092c-0.131656,-0.607894 -0.650149,-0.757168 -1.124886,-0.797404c-0.211231,-0.017767 -0.518686,0.430055 -0.703586,0.708745c-0.461184,0.695159 -0.794003,1.4741 -1.346959,2.098541c-0.270089,0.304992 -0.9123,0.352195 -1.394587,0.492586c-0.232141,0.067582 -0.534369,0.017941 -0.713847,0.134642c-0.216845,0.141087 -0.486353,0.42152 -0.456731,0.605804c0.028461,0.177143 0.400196,0.424307 0.637371,0.439983c1.094295,0.072634 1.636408,0.765703 2.10553,1.488905c0.348502,0.537176 0.52585,1.162489 0.811815,1.735198c0.095644,0.191426 0.328753,0.501817 0.434078,0.481787c0.301841,-0.057306 0.672802,-0.195606 0.830983,-0.411765c0.351793,-0.480916 0.571543,-1.037774 0.880354,-1.546559c0.333981,-0.550414 0.802134,-0.862722 1.561868,-0.965837c0.716558,-0.097193 1.386068,-0.475342 2.076101,-0.729821c-0.013746,-0.113044 -0.027299,-0.226262 -0.040852,-0.339654z"/>
   <path stroke="null" id="svg_51" d="m11.996967,41.161373c-0.464475,-0.10329 -0.928757,-0.206231 -1.393232,-0.309695c-0.937856,-0.208844 -1.641636,-0.714842 -2.01705,-1.49535c-0.338627,-0.704042 -0.62072,-1.446753 -0.783354,-2.197824c-0.155277,-0.716583 -0.76651,-0.892855 -1.326436,-0.940059c-0.248985,-0.021076 -0.61162,0.507043 -0.829627,0.835724c-0.543662,0.819525 -0.936114,1.737985 -1.588005,2.474251c-0.318492,0.359685 -1.075708,0.415249 -1.644347,0.580722c-0.273767,0.079775 -0.630013,0.02125 -0.841438,0.158854c-0.255761,0.166344 -0.573479,0.497115 -0.538435,0.714145c0.033688,0.208844 0.471832,0.50025 0.751602,0.518713c1.29023,0.085523 1.929343,0.902609 2.482493,1.755403c0.410845,0.633325 0.619946,1.370461 0.957024,2.045938c0.112682,0.225739 0.387418,0.591521 0.511716,0.568006c0.355859,-0.067582 0.793228,-0.230617 0.979677,-0.485619c0.414717,-0.566961 0.673963,-1.223626 1.037954,-1.823508c0.393807,-0.649001 0.945601,-1.017221 1.841444,-1.138626c0.844729,-0.114612 1.634085,-0.560342 2.447836,-0.860458c-0.015876,-0.133423 -0.031752,-0.267021 -0.047822,-0.400618z"/>
  </g>
 </g>
</svg>