<svg width="99" height="67" xmlns="http://www.w3.org/2000/svg">

 <g>
  <title>background</title>
  <rect fill="none" id="canvas_background" height="69" width="101" y="-1" x="-1"/>
 </g>
 <g>
  <title>Layer 1</title>
  <g stroke="null" id="svg_1">
   <g stroke="null" id="svg_2">
    <path stroke="null" fill="#9ACEE6" id="svg_3" d="m24.852415,22.244875c-0.097193,0.094349 -0.188191,0.163138 -0.251889,0.247709c-0.682482,0.906092 -1.382777,1.802405 -2.032732,2.72668c-0.506489,0.720139 -1.090423,1.398935 -1.437375,2.208791c-0.174832,0.40793 -0.489645,0.770744 -0.75741,1.14488c-0.654796,0.915355 -1.301847,1.835685 -1.985491,2.734057c-0.470864,0.618757 -1.000393,1.202518 -1.497589,1.805836c-0.174638,0.212027 -0.317524,0.444983 -0.499132,0.651693c-0.157794,0.179434 -0.330496,0.357325 -0.531078,0.496789c-0.395936,0.275155 -0.815881,0.523207 -1.220724,0.778978c-0.363797,0.10001 -0.726432,0.199848 -1.162253,0.319757c-0.349663,-0.012694 -0.783548,-0.028305 -1.340957,-0.048547c-0.433884,-0.283733 -0.966705,-0.626476 -1.491199,-0.979341c-0.108229,-0.072734 -0.184125,-0.182865 -0.27551,-0.275155c-0.180253,-0.181664 -0.361086,-0.362986 -0.532046,-0.534529c-0.059632,-0.211856 -0.121201,-0.427143 -0.180446,-0.642944c-0.075702,-0.27567 -0.169798,-0.548767 -0.219362,-0.828211c-0.100097,-0.564377 -0.186255,-1.131156 -0.256536,-1.698965c-0.036786,-0.298142 -0.047822,-0.601259 -0.035625,-0.900945c0.030397,-0.744841 0.085383,-1.488824 0.119652,-2.233494c0.007164,-0.156276 -0.03214,-0.314267 -0.047435,-0.449443c0.07667,-0.364701 0.161085,-0.711218 0.220718,-1.061167c0.177736,-1.042812 0.345597,-2.086824 0.517718,-3.130493c0.10184,-0.617213 0.195161,-1.235798 0.308811,-1.851295c0.120233,-0.650149 0.275703,-1.295323 0.386837,-1.946673c0.101259,-0.592511 0.274348,-1.172155 0.326043,-1.775301c0.03911,-0.454933 0.210069,-0.900602 0.316749,-1.35159c0.242402,-1.025829 0.450729,-2.058862 0.734177,-3.0756c0.147726,-0.529554 0.257504,-1.068543 0.472994,-1.588319c0.191482,-0.461623 0.254213,-0.964588 0.377543,-1.448683c0.099323,-0.389746 0.207358,-0.777777 0.30552,-1.167867c0.092159,-0.365902 -0.111714,-0.678625 -0.242209,-1.003871c-0.012972,-0.032422 -0.033301,-0.062442 -0.075509,-0.140837c0.089449,0.012008 0.146758,0.019556 0.253438,0.033794c0.073573,-0.484095 0.211231,-0.955839 0.632143,-1.355878c0.056147,-0.005318 0.152566,-0.014753 0.273187,-0.026418c0.049952,0.135519 0.092159,0.250453 0.126622,0.343601c0.322558,-0.171372 0.651892,-0.346174 0.985485,-0.523379c0.127203,0.209454 0.228849,0.376709 0.331851,0.546022c0.197291,-0.173602 0.363991,-0.320443 0.51191,-0.450644c0.964768,-0.119051 1.8155,0.178748 2.68869,0.343773c0.087513,0.169142 0.162053,0.31341 0.2546,0.492329c0.038916,0.010121 0.109584,0.028305 0.209488,0.054036c0.48403,0.556143 0.5092,0.568666 1.31327,0.641057c0.145983,0.107043 0.295645,0.216659 0.471252,0.345317c0.017619,0.117507 0.052082,0.256972 0.055373,0.39678c0.003291,0.138092 -0.02517,0.276699 -0.045305,0.469171c-0.162247,-0.063986 -0.277252,-0.109445 -0.417815,-0.164853c-0.239111,0.114076 -0.076864,0.322501 -0.08306,0.527839c-0.079187,0.135691 -0.17154,0.293167 -0.251502,0.430059c-0.02575,0.558716 -0.045886,1.094446 -0.077058,1.629661c-0.014134,0.243248 -0.110746,0.457849 -0.226332,0.687031c-0.159343,0.31564 -0.182963,0.694407 -0.212199,1.049673c-0.031559,0.381855 -0.179672,0.717394 -0.326623,1.071802c-0.200195,0.482894 -0.535724,0.942802 -0.470864,1.501347c0.014327,0.123854 -0.104744,0.258516 -0.15547,0.390261c-0.069313,0.179949 -0.132043,0.361785 -0.139207,0.560089c0.043563,-0.064157 0.087319,-0.128486 0.174444,-0.256629c0.026718,0.338798 -0.04879,0.59354 -0.119846,0.852913c-0.105712,0.385801 -0.195742,0.775376 -0.273961,1.166323c-0.021685,0.108072 0.022265,0.226266 0.044144,0.406386c0.300486,-0.247709 0.275316,-0.625275 0.674157,-0.758564c-0.068732,0.322673 -0.127978,0.612238 -0.192257,0.900945c-0.073573,0.330392 -0.139981,0.6625 -0.231173,0.988947c-0.070862,0.254227 -0.116361,0.505538 -0.274929,0.751703c-0.160504,0.248909 -0.166313,0.581532 -0.213167,0.880875c-0.056728,0.362643 -0.09003,0.705043 -0.364378,1.030632c-0.210843,0.250282 -0.254406,0.614983 -0.353535,0.933539c-0.074541,0.23896 -0.055373,0.518747 -0.190321,0.721511c-0.321396,0.482723 -0.366701,1.020511 -0.476479,1.542689c-0.144435,0.686688 -0.457505,1.315051 -0.734564,1.959882c-0.189159,0.44018 -0.280737,0.913468 -0.450535,1.489339c0.504746,-0.458364 0.920238,-0.79476 1.215302,-1.255697c0.261763,-0.409131 0.679578,-0.739008 1.02169,-1.109027c0.586838,-0.63471 1.163608,-1.276625 1.754125,-1.908591c0.281318,-0.301058 0.587419,-0.584105 0.876869,-0.879159c0.790711,-0.806082 1.584714,-1.609934 2.363034,-2.42545c0.16457,-0.172573 0.296226,-0.380826 0.393807,-0.590452c0.289256,-0.620987 0.77348,-0.960128 1.51966,-1.172841c0.779675,-0.22232 1.566902,-0.26006 2.35316,-0.360069c0.744825,-0.094692 1.481519,0.447556 1.539215,1.094618c0.031559,0.353722 0.368831,1.396534 0.546373,1.667229c0.010649,0.191785 0.022653,0.406043 0.035818,0.641915c0.140175,0.165025 0.292354,0.344116 0.50707,0.596799c0.271057,-0.686859 0.511136,-1.301842 0.756442,-1.914938c0.363216,-0.907807 0.73166,-1.81407 1.095263,-2.721877c0.356827,-0.890824 0.693712,-1.78851 1.072223,-2.671958c0.177736,-0.41462 0.432916,-0.803166 0.653053,-1.203548c0.403294,-0.733691 0.801941,-1.46944 1.211817,-2.200386c0.276284,-0.492672 0.267765,-1.03372 0.386256,-1.541145c-0.089642,-0.15782 -0.167474,-0.294883 -0.288675,-0.508283c0.211618,0.078224 0.348308,0.128657 0.502229,0.185438c0.272993,-0.142038 0.674351,-0.028991 0.910751,-0.320614c-0.053243,-0.082341 -0.101453,-0.156447 -0.156438,-0.241533c0.137658,-0.080282 0.277833,-0.161937 0.417621,-0.24342c-0.012004,-0.116478 -0.021685,-0.211684 -0.035818,-0.349605c0.225364,0.0434 0.411813,0.079425 0.606199,0.116821c0.026525,-0.083198 0.051114,-0.160736 0.089642,-0.281503c0.293322,-0.003774 0.591097,-0.007548 0.902813,-0.011493c0.061181,-0.054894 0.129139,-0.115792 0.21278,-0.190756c0.248017,0.048032 0.50978,0.268637 0.758959,-0.00892c0.391677,0.169828 0.756055,0.327991 1.150249,0.498848c0.033108,0.160565 0.051888,0.337254 0.109197,0.503651c0.052082,0.151301 0.14579,0.29128 0.2273,0.4479c-0.024201,0.043915 -0.058277,0.106185 -0.124299,0.226437c0.117329,-0.024531 0.183157,-0.038254 0.282286,-0.059011c0.041239,0.03671 0.139207,0.082684 0.141143,0.131917c0.01878,0.472602 0.12275,0.958584 -0.303003,1.361711c-0.119265,0.112875 -0.193031,0.274298 -0.251115,0.42457c-0.148888,0.385972 -0.275897,0.778463 -0.41491,1.167524c-0.030397,0.085085 -0.058277,0.175832 -0.114037,0.24788c-0.392839,0.508111 -0.507457,1.113487 -0.760895,1.669802c-0.435627,0.956011 -0.641436,1.963141 -0.923142,2.95449c-0.151598,0.533328 -0.354116,1.056364 -0.559151,1.576311c-0.183351,0.465054 -0.410845,0.916213 -0.601165,1.379208c-0.1576,0.383399 -0.289644,0.775033 -0.350631,1.2183c-0.10455,0.055065 -0.208907,0.109959 -0.245306,0.129001c-0.193806,0.47912 -0.350825,0.898201 -0.532239,1.308704c-0.226332,0.512228 -0.491581,1.011419 -0.705522,1.527421c-0.239498,0.577586 -0.450922,1.16495 -0.655957,1.753001c-0.30339,0.870754 -0.703005,1.701195 -1.221111,2.489779c-0.288869,0.439837 -0.573479,0.86475 -1.002136,1.226878c-0.474349,0.400554 -1.03079,0.525266 -1.630794,0.591996c-0.238336,0.026589 -0.483255,0.00669 -0.842018,0.008749c-0.489451,-0.204823 -1.083259,-0.453046 -1.66274,-0.695436c-0.228656,-0.454247 -0.854216,-0.682914 -0.787033,-1.228421c-0.329915,-0.286477 -0.473381,-0.593711 -0.46525,-0.977625c0.005034,-0.244449 -0.041627,-0.505367 -0.14095,-0.733004c-0.319073,-0.732318 -0.478609,-1.502205 -0.670672,-2.25974c-0.246468,-0.972307 -0.378705,-1.967258 -0.565541,-2.951745c-0.046273,-0.248395 -0.104938,-0.497476 -0.33553,-0.715507zm-6.481935,-3.473923c-0.092547,0.062785 -0.149856,0.101554 -0.225945,0.153017c0.216071,0.105842 0.263312,0.055752 0.225945,-0.153017zm20.171077,-2.964783l0.01878,-0.027104l-0.027299,-0.003945l0.008519,0.031049z"/>
    <path stroke="null" fill="#9ACEE6" id="svg_4" d="m87.176691,18.050814c-0.002711,0.261775 -0.216845,0.302259 -0.480158,0.336396c-0.082285,0.216145 -0.170185,0.447385 -0.277446,0.728887c-0.087319,-0.082855 -0.154309,-0.146498 -0.225752,-0.214086c-0.035431,0.015954 -0.084996,0.023158 -0.099904,0.047174c-0.082285,0.133289 -0.164377,0.267608 -0.231173,0.407244c-0.077638,0.162623 -0.191869,0.32902 -0.200195,0.497304c-0.057503,1.167181 -0.368056,2.298165 -0.694293,3.41577c-0.314232,1.076606 -0.610652,2.162132 -1.084227,3.204085c-0.236013,0.51909 -0.306488,1.099764 -0.512104,1.641669c-0.125461,0.330564 -0.134754,0.69578 -0.211231,1.130299c-0.073766,0.087316 -0.206003,0.243763 -0.330108,0.390604c-0.083447,0.265034 -0.164183,0.522006 -0.254019,0.807454c-0.118297,-0.024359 -0.222654,-0.065186 -0.324687,-0.060726c-0.090804,0.003945 -0.178704,0.058325 -0.271638,0.091776c-0.072604,-0.12231 -0.133592,-0.225065 -0.212199,-0.357325c-0.064279,0.063643 -0.129526,0.099152 -0.12759,0.131231c0.007744,0.119737 0.037561,0.238274 0.070088,0.418223c-0.255181,-0.110989 -0.476673,-0.207396 -0.767865,-0.333995c-0.229817,0.049233 -0.512297,0.132603 -0.801747,0.163995c-0.190901,0.020757 -0.423817,0.016468 -0.582578,-0.063128c-0.422461,-0.211684 -0.779675,-0.484438 -0.946375,-0.926848c-0.146371,-0.388546 -0.358376,-0.758393 -0.549664,-1.133043c-0.193999,-0.38014 -0.279576,-0.756163 -0.199033,-1.18708c0.057116,-0.305176 -0.054211,-0.635053 -0.09003,-0.953952c-0.059632,-0.531613 -0.075509,-1.060481 -0.056341,-1.598097c0.039497,-1.11263 0.292741,-2.203817 0.347146,-3.313702c0.032914,-0.673479 0.091385,-1.349531 0.204648,-2.015634c0.125461,-0.737979 0.327591,-1.465837 0.492936,-2.19867c0.042401,-0.188183 0.072992,-0.378596 0.121007,-0.630593c-0.328172,0.161765 -0.582385,0.293167 -0.842793,0.413934c-0.572898,0.265892 -1.138438,0.530755 -1.784909,0.662157c-0.616848,0.125398 -1.208139,0.35012 -1.769226,0.518575c-0.167668,0.575699 -0.323526,1.107827 -0.476866,1.640297c-0.050339,0.174631 -0.004259,0.472259 0.079381,0.665588c-0.169023,0.367103 -0.328366,0.687202 -0.464282,1.015022c-0.138239,0.333137 -0.283835,0.667646 -0.370573,1.01262c-0.083447,0.331079 0.008713,0.69578 -0.254406,1.103538c-0.022846,0.355266 0.031172,0.842621 -0.451503,1.228936c-0.412394,0.75479 -0.459828,1.720751 -1.347733,2.321152c-0.170766,0.001372 -0.348695,0.002745 -0.461377,0.003774c-0.175412,0.235529 -0.318879,0.428344 -0.435433,0.584963c-0.296807,0.035166 -0.531271,0.062956 -0.855765,0.101211c-0.034657,-0.043572 -0.102808,-0.129344 -0.164377,-0.206881c0.023427,-0.12677 0.042401,-0.229353 0.061762,-0.333652c-0.364959,-0.125741 -0.538822,0.159192 -0.853442,0.288707c-0.712105,-0.382713 -1.45693,-0.782924 -2.192656,-1.178331c-0.026138,-0.190585 -0.047822,-0.347375 -0.073766,-0.536244c-0.080155,-0.00669 -0.151017,-0.014067 -0.222267,-0.018355c-0.074734,-0.00446 -0.149662,-0.005832 -0.253632,-0.009606c0.014521,-0.072391 0.015876,-0.119051 0.033495,-0.16005c0.058084,-0.135519 0.122169,-0.268808 0.188965,-0.413934c-0.141337,-0.043572 -0.215297,-0.066387 -0.289256,-0.089374c0.056922,-0.041685 0.113844,-0.083198 0.194193,-0.141866c-0.130301,-0.307749 -0.260408,-0.61464 -0.397873,-0.939371c-0.00484,-0.344116 0.010068,-0.714478 -0.019748,-1.081923c-0.055567,-0.687889 0.100097,-1.353991 0.222073,-2.024554c0.160892,-0.884306 0.485579,-1.733788 0.706877,-2.605228c0.202131,-0.796475 0.432336,-1.58952 0.580449,-2.394058c0.123524,-0.670906 0.356246,-1.31162 0.545986,-1.964514c0.411425,-1.415404 0.84047,-2.827033 1.214722,-4.250156c0.103776,-0.394721 0.274929,-0.767828 0.367863,-1.162892c0.257698,-1.097191 0.53069,-2.191637 0.775416,-3.291058c0.040271,-0.18115 -0.001936,-0.38906 -0.058277,-0.571925c-0.097968,-0.31787 -0.236594,-0.625961 -0.393032,-1.027201c0.022459,-0.05781 0.079575,-0.20568 0.132043,-0.341886c0.227107,-0.145297 0.434659,-0.278072 0.649375,-0.415306c0.089255,0.145812 0.157213,0.256629 0.216265,0.353379c0.392064,0.009606 0.567864,-0.19007 0.680352,-0.472945c1.405236,0.441895 2.77446,0.872469 4.103219,1.290177c0.17367,0.397123 0.324106,0.74141 0.474543,1.085697c0.034076,0.000172 0.068151,0.000172 0.102227,0.000515c-0.075121,0.195216 -0.150049,0.390604 -0.24066,0.626648c0.038916,0.090232 0.096225,0.222663 0.164183,0.379797c-0.009293,0.200706 -0.019748,0.426285 -0.030591,0.66473c0.09003,-0.031049 0.144047,-0.049748 0.21336,-0.073764c0.012004,0.069818 0.044337,0.139808 0.031946,0.202764c-0.15973,0.803337 0.063311,1.639954 -0.270476,2.427509c0.047048,0.704357 -0.163796,1.379723 -0.283835,2.066067c-0.031946,0.182522 0.048984,0.380483 0.086157,0.622874c-0.087513,0.014067 -0.232528,0.037396 -0.373284,0.06004c-0.126429,0.330564 -0.25731,0.673136 -0.406972,1.064255c0.02517,0.046831 0.074347,0.138264 0.131656,0.244449c0.076283,-0.039455 0.153341,-0.055237 0.166894,-0.090403c0.084608,-0.216659 0.155083,-0.437607 0.268927,-0.770572c0.079768,0.171715 0.157794,0.254227 0.141918,0.318556c-0.128365,0.519776 -0.274348,1.036121 -0.427108,1.59844c0.735532,0.090403 1.459447,-0.109102 2.191494,-0.125227c0.738242,-0.016297 1.489457,0.001887 2.18646,-0.197618c0.388966,-0.310493 0.230205,-0.716708 0.327011,-1.099421c-0.127397,-0.07445 -0.254213,-0.148556 -0.385481,-0.225236c0.011229,-0.064843 -0.000581,-0.133289 0.032333,-0.163652c0.180059,-0.166569 0.371154,-0.323874 0.600197,-0.520119c0.326236,-1.07043 0.585289,-2.19644 0.778127,-3.335145c0.06486,-0.383228 0.154502,-0.764912 0.187416,-1.150369c0.038916,-0.458878 0.029042,-0.920844 0.040271,-1.378693c0.197484,-0.247709 0.381416,-0.478434 0.584515,-0.733176c0.575608,0.358182 1.045311,-0.085772 1.637764,-0.072734c0.003485,0.001887 0.069313,0.038254 0.192838,0.106185c0.532239,-0.255256 1.117916,-0.036539 1.702043,0.025903c0.553149,0.059182 1.09778,0.179091 1.669903,0.276185c0.389935,0.233127 0.272606,0.665759 0.442597,1.007474c0.117716,-0.000858 0.24337,-0.001715 0.394581,-0.002745c-0.08093,0.441038 -0.176574,0.844336 -0.223428,1.252266c-0.046467,0.404842 -0.043563,0.814144 -0.064086,1.257755c0.097,0.00995 0.185867,0.019041 0.33553,0.03448c-0.128946,0.856344 -0.027687,1.684727 0.577738,2.403664c-0.115586,0.414277 -0.228849,0.819634 -0.345404,1.236999c0.043563,0.036024 0.099323,0.082169 0.129526,0.107043c-0.100678,0.32902 -0.19245,0.646032 -0.295452,0.959956c-0.103195,0.314267 -0.217813,0.625447 -0.34947,1.000955c0.139401,-0.049061 0.207165,-0.072906 0.274929,-0.09675c-0.002904,0.078224 -0.005615,0.156447 -0.008519,0.234671c-0.299131,0.211856 -0.531852,0.460079 -0.66254,0.7903c-0.075896,0.191957 -0.224977,0.36127 -0.381028,0.602117c0.084028,0.420796 -0.519848,0.784639 -0.337659,1.310762c0.276672,-0.714649 0.658862,-1.372689 1.154121,-1.958167c0.071056,-0.256972 0.140562,-0.507768 0.210069,-0.758564c0.13669,-0.065186 0.124686,-0.135691 0.009874,-0.209969c0.079962,-0.03671 0.159923,-0.073421 0.342693,-0.157134c-0.255568,0.704528 -0.478222,1.318996 -0.701069,1.933293c0.029816,0.011836 0.059439,0.023845 0.089062,0.035853c0.137271,-0.218718 0.274735,-0.437435 0.424978,-0.676567c0.057309,0.047861 0.121782,0.101725 0.183931,0.153531c-0.131075,0.245822 -0.248404,0.465912 -0.38219,0.716879c-0.075121,0.019556 -0.187804,0.04889 -0.299711,0.077881c-0.140175,0.1489 -0.27822,0.295398 -0.425753,0.452188c0.020329,0.190242 0.043369,0.404671 0.068345,0.638141c0.115586,-0.057982 0.22459,-0.112704 0.333593,-0.167426l-0.013746,-0.011322zm-1.203686,0.444126c0.020136,0.002059 0.040078,0.003945 0.06002,0.006004c0.011617,-0.071019 0.023233,-0.141866 0.03485,-0.212714c-0.024201,-0.002573 -0.048209,-0.005146 -0.072217,-0.007891c-0.007551,0.071534 -0.015102,0.143067 -0.022653,0.214601zm-18.03786,-0.74364c0.000968,-0.009263 0.001936,-0.018527 0.002904,-0.027618c-0.052469,-0.00446 -0.105131,-0.008749 -0.157794,-0.013209c-0.000968,0.009606 -0.001936,0.019213 -0.002904,0.028819c0.052662,0.003945 0.105131,0.008063 0.157794,0.012008z"/>
    <path stroke="null" fill="#9ACEE6" id="svg_5" d="m18.467479,34.611602c0.070088,0.030878 0.140175,0.061584 0.213941,0.094177c0.15063,-0.259717 0.041046,-0.469171 -0.17367,-0.672107c0.235045,-0.148042 0.443178,-0.279272 0.698939,-0.440352c0.152373,0.176003 0.284416,0.328848 0.440274,0.508969c0.230398,-0.060726 0.286546,-0.296941 0.381609,-0.482723c0.35915,-0.12334 0.553343,0.17669 0.838533,0.221634c0.269701,0.042543 0.539403,0.084742 0.881322,0.138264c0.021104,-0.010293 0.125267,-0.107558 0.213748,-0.097437c0.704748,0.080968 1.448798,-0.108072 2.148125,0.235014c0.065054,0.651521 0.772125,0.602975 1.170578,0.804366c0.210456,0.734891 0.412006,1.411458 0.596906,2.091627c0.246081,0.904548 0.287901,1.821103 0.142498,2.74109c-0.069313,0.438293 -0.187223,0.870411 -0.268153,1.307331c-0.089836,0.485124 -0.160504,0.972822 -0.244532,1.458804c-0.030397,0.175317 -0.030203,0.370362 -0.121395,0.51909c-0.481513,0.785668 -0.551601,1.704111 -1.040084,2.485834c-0.046467,0.07445 -0.063698,0.167941 -0.07396,0.25457c-0.09061,0.765769 -0.296033,1.507008 -0.589355,2.23092c-0.031752,0.078224 -0.01181,0.172744 -0.017812,0.305176c0.157987,-0.083542 0.28248,-0.149414 0.447631,-0.236901c0.127203,0.581875 -0.066022,1.0893 -0.202131,1.601185c-0.129914,0.488727 -0.358182,0.939714 -0.656345,1.366342c-0.082091,0.117507 -0.162247,0.253198 -0.178897,0.386659c-0.076477,0.612581 -0.368831,1.155687 -0.628464,1.715604c-0.239885,0.517546 -0.397679,1.065112 -0.630788,1.707713c0.628271,-0.224893 1.131081,-0.405185 1.634279,-0.584791c0.439886,-0.156962 0.88016,-0.313238 1.32024,-0.469686l-0.015489,-0.014238c0.002323,0.137921 0.004453,0.275842 0.007164,0.439665c0.877837,-0.171715 1.689845,-0.391976 2.498369,-0.649806c0.821883,-0.262118 1.709207,-0.36127 2.537479,-0.611037c0.804264,-0.242562 1.638538,-0.394035 2.473199,-0.708302c0.033495,-0.040827 0.103776,-0.126084 0.150437,-0.183037c0.173476,0.028476 0.325849,0.053522 0.471639,0.077366c0.266023,-0.2134 0.512297,-0.411018 0.654215,-0.524922c1.165544,-0.253026 2.198851,-0.461451 3.220542,-0.707616c0.363797,-0.087659 0.696229,-0.274298 1.050345,-0.398838c0.089255,-0.031392 0.207746,0.00223 0.408908,0.009606c-0.194774,0.19007 -0.3243,0.316497 -0.475511,0.464025c0.021491,0.084914 0.046854,0.185781 0.074734,0.297113c0.12972,0.045459 0.250534,0.087659 0.409296,0.14341c-0.720237,0.681198 -1.221304,1.470126 -1.963419,2.101405c-0.618977,0.526466 -1.133598,1.14934 -1.695266,1.728813c-0.039303,0.040484 -0.117716,0.072734 -0.12275,0.114248c-0.069507,0.557001 -0.651117,0.692349 -1.006782,1.020168c-0.460797,0.424741 -1.090616,0.561118 -1.578325,0.915012c-0.092547,0.067245 -0.263312,0.049748 -0.412781,0.073764c-0.100097,0.264348 -0.300873,0.434348 -0.617041,0.521148c-0.164183,0.045116 -0.297194,0.173945 -0.451503,0.254056c-0.431948,0.224036 -0.876675,0.429716 -1.298362,0.667646c-0.231947,0.130888 -0.432529,0.307577 -0.638726,0.471916c-0.430593,0.343258 -0.847633,0.70024 -1.2881,1.033034c-0.121588,0.091776 -0.306294,0.117679 -0.506489,0.107043c0.109391,-0.130888 0.218588,-0.261604 0.327785,-0.392319c-0.019168,-0.014924 -0.038142,-0.029849 -0.057309,-0.044601c-0.280737,0.156962 -0.569413,0.303803 -0.839695,0.473974c-0.277446,0.174631 -0.535531,0.373278 -0.804071,0.559231c-0.218394,0.15113 -0.313264,0.361785 -0.388386,0.588393c-0.078026,0.235186 -0.174832,0.465397 -0.284222,0.752389c-0.230592,-0.249939 0.110165,-0.604519 -0.343274,-0.726829c-0.05305,0.05335 -0.140175,0.1067 -0.172508,0.179091c-0.123524,0.277557 -0.393032,0.406901 -0.669704,0.511027c-0.249759,0.094177 -0.52314,0.138264 -0.784322,0.209454c-0.372316,0.101554 -0.588193,0.390433 -0.793228,0.633509c-0.270476,0.320957 -0.629045,0.476376 -1.01201,0.675366c-0.042401,-0.09778 -0.075121,-0.173602 -0.116554,-0.269494c-0.381609,0.095721 -0.764767,0.191957 -1.184131,0.297113c-0.180446,-0.052492 -0.408715,-0.119051 -0.702231,-0.20448c-0.163021,0.077709 -0.367863,0.175146 -0.622463,0.296427c-0.06273,-0.025045 -0.186061,-0.074278 -0.321202,-0.128143c-0.126041,0.043229 -0.255181,0.087659 -0.375801,0.129172c-0.073185,-0.017841 -0.14095,-0.019556 -0.187223,-0.048204c-0.393613,-0.243248 -0.786065,-0.488041 -1.172901,-0.739695c-0.15489,-0.100696 -0.258472,-0.278929 -0.511716,-0.198476c-0.049758,0.015782 -0.146371,-0.053865 -0.206778,-0.099324c-0.517138,-0.389746 -1.070481,-0.731632 -1.228662,-1.39722c-0.19458,-0.817918 -0.487515,-1.61731 -0.725851,-2.427509c-0.055373,-0.188355 -0.124105,-0.40021 -0.079381,-0.580331c0.152953,-0.614983 0.049952,-1.200288 -0.184125,-1.803263c0.08093,-0.090232 0.164764,-0.183551 0.209682,-0.233642c0.020329,-0.195559 0.042982,-0.344116 0.049177,-0.493015c0.005034,-0.121796 -0.007357,-0.244278 -0.015295,-0.366245c-0.01607,-0.243935 -0.01878,-0.476204 0.071056,-0.722883c0.120039,-0.329363 0.162828,-0.682914 0.214909,-1.028917c0.034076,-0.227295 0.02575,-0.459736 0.037948,-0.726314c0.00697,-0.004975 0.088481,-0.034652 0.092547,-0.07119c0.042982,-0.37568 0.181414,-0.72803 0.295839,-1.088271c0.117716,-0.370705 0.164377,-0.758564 0.248791,-1.137847c0.061956,-0.278072 0.158375,-0.551683 0.197678,-0.831985c0.134367,-0.956011 0.553149,-1.843576 0.823045,-2.766479c0.128171,-0.438122 0.277059,-0.872984 0.368444,-1.317281c0.0697,-0.338626 -0.093902,-0.689776 0.025944,-1.036636c0.0879,-0.254227 0.14095,-0.517718 0.225558,-0.772802c0.295065,-0.888423 0.593614,-1.776159 0.897972,-2.66218c0.227688,-0.663015 0.469703,-1.322084 0.699326,-1.984584c0.299131,-0.863034 0.599423,-1.725725 0.883258,-2.592705c0.066215,-0.202421 0.100291,-0.421996 0.093515,-0.632309c-0.014134,-0.437607 0.052275,-0.883619 -0.151405,-1.308189c-0.042982,-0.089546 -0.001743,-0.210655 0.000774,-0.317184l-0.017619,0.01338zm5.166536,13.772696c-0.241434,0.229353 -0.240079,0.392491 -0.192257,0.587536c0.27764,-0.121281 0.237562,-0.304489 0.192257,-0.587536zm10.208966,3.473237c-0.024782,-0.041513 -0.049371,-0.082855 -0.07396,-0.124197c-0.118103,0.049404 -0.236207,0.098809 -0.35431,0.148042c0.01181,0.027618 0.023621,0.055237 0.035625,0.083027c0.130882,-0.035853 0.261763,-0.071362 0.392645,-0.106871zm-15.176275,11.698051c0.012004,-0.009263 0.03272,-0.018012 0.033688,-0.028133c0.000968,-0.010121 -0.0182,-0.021614 -0.028461,-0.032422c-0.01181,0.009435 -0.03214,0.018012 -0.033108,0.028133c-0.000774,0.010293 0.017812,0.021614 0.02788,0.032422z"/>
    <path stroke="null" fill="#9ACEE6" id="svg_6" d="m78.816913,46.598875c0.014134,-0.051806 0.028267,-0.103784 0.056535,-0.208082c0.452471,-0.076337 0.927014,0.057467 1.399234,0.035509c0.461765,-0.021443 0.923336,-0.04443 1.4033,-0.067588c0.09274,-0.096407 0.192838,-0.200191 0.302616,-0.314096c0.266023,0.063643 0.515395,0.12334 0.79226,0.189555c0.246662,0.222835 0.509587,0.460079 0.795164,0.717909c-0.257117,0.297456 -0.370573,0.654266 -0.746181,0.845022c-0.066022,0.033622 -0.125073,0.097608 -0.157407,0.159878c-0.299905,0.577072 -0.901264,0.94263 -1.297394,1.453486c-0.107261,0.138264 -0.300292,0.241361 -0.477834,0.316154c-0.494098,0.208082 -0.939212,0.45682 -1.318498,0.820835c-0.230785,0.221634 -0.572898,0.351149 -0.860799,0.527153c-0.5092,0.31118 -1.060026,0.584105 -1.507656,0.954295c-0.313845,0.259545 -0.605037,0.515316 -1.007557,0.653751c-0.110552,0.038083 -0.22459,0.09332 -0.33824,0.095721c-0.445888,0.009435 -0.720624,0.268808 -0.957024,0.455962c-0.391096,0.147184 -0.712879,0.268122 -1.10049,0.413934c0.012972,-0.279959 0.023621,-0.511885 0.039303,-0.851541c-0.373284,0.244621 -0.40097,0.487698 -0.364184,0.780865c-0.336691,0.076851 -0.640081,0.205166 -0.598261,0.593197c-0.160311,0.099152 -0.305713,0.189041 -0.505134,0.31238c-0.030784,-0.147184 -0.05305,-0.252512 -0.078606,-0.374479c-0.344436,0.001887 -0.341144,0.324731 -0.674931,0.496103c-0.0182,0.000515 -0.172895,0.004975 -0.327785,0.009263l-0.007551,-0.007205c-0.018974,-0.050262 -0.038142,-0.100524 -0.058471,-0.15456c-0.156051,-0.040656 -0.315007,-0.082341 -0.497002,-0.129858c-0.325268,0.19899 -0.633692,0.495932 -1.153153,0.598171c0.042401,-0.174631 0.065054,-0.267779 0.086932,-0.358354c-0.229817,-0.297285 -0.563604,-0.097608 -0.851699,-0.161251c-0.087125,0.059182 -0.181802,0.123511 -0.29642,0.201392c-0.160892,-0.005832 -0.340176,-0.012351 -0.571349,-0.020585c-0.322364,-0.270009 -0.675706,-0.5558 -1.015301,-0.853942c-0.213941,-0.18784 -0.439693,-0.28905 -0.76651,-0.154732c-0.020136,-0.13449 -0.037561,-0.250282 -0.054986,-0.366245c-0.027299,-0.025903 -0.054405,-0.051978 -0.081704,-0.078052c-0.028848,0.075136 -0.05789,0.150272 -0.103582,0.26898c-0.198646,-0.162451 -0.370573,-0.258344 -0.473381,-0.395236c-0.304164,-0.404842 -0.522559,-0.842449 -0.567477,-1.339753c-0.015876,-0.175146 -0.056535,-0.361099 -0.144241,-0.516517c-0.319653,-0.566607 -0.277059,-1.159633 -0.090223,-1.723495c0.185867,-0.560775 0.184125,-1.125839 0.247242,-1.69176c0.048984,-0.439665 0.137077,-0.875728 0.197291,-1.314536c0.047822,-0.348061 0.056535,-0.70144 0.122944,-1.046242c0.128946,-0.668333 0.265442,-1.336665 0.436014,-1.997278c0.417621,-1.61731 0.817236,-3.239595 1.303009,-4.841123c0.251115,-0.828039 0.350438,-1.672204 0.534175,-2.506247c0.060407,-0.274298 0.113263,-0.56249 -0.056728,-0.837817c-0.039884,-0.0645 0.001549,-0.168284 0.007164,-0.291795c0.141724,0.036882 0.247242,0.064329 0.352567,0.091604c0.512297,-0.314953 0.622656,-0.466598 0.624399,-0.785497c0.218201,-0.31118 0.398453,-0.568494 0.583159,-0.831813c-0.095644,-0.151644 -0.183157,-0.290251 -0.256342,-0.406214c-0.126041,-0.043915 -0.227107,-0.07891 -0.316749,-0.110131c-0.031752,-0.294368 0.203293,-0.302602 0.403875,-0.373107c0.138433,0.162795 0.278027,0.32679 0.416072,0.48907c0.202518,-0.320957 0.202518,-0.320957 0.475317,-0.473631c-0.020136,0.174631 -0.036399,0.315297 -0.055567,0.481179c0.068926,0.017497 0.139981,0.035509 0.245306,0.06227c0.008713,-0.084228 0.014908,-0.143753 0.02517,-0.241361c0.11578,0.019899 0.227107,0.03894 0.344242,0.059011c0.030784,-0.082169 0.061956,-0.165711 0.099129,-0.264863c0.300486,-0.217345 0.672802,-0.152674 1.043569,-0.180978c0.18277,0.099838 0.37038,0.202421 0.62285,0.340342c0.563217,-0.123511 1.179097,-0.255085 1.793041,-0.394035c0.463507,-0.104984 0.920625,-0.233127 1.38723,-0.324903c0.400196,-0.078738 0.809685,-0.120766 1.215109,-0.178405c0.71133,-0.101382 1.423435,-0.198304 2.133023,-0.307749c0.114425,-0.017669 0.217813,-0.090403 0.210263,-0.087144c0.501261,-0.047517 0.88016,-0.079253 1.257897,-0.120423c0.453826,-0.049404 0.904942,-0.126599 1.360318,-0.156619c0.856733,-0.056266 1.715402,-0.115792 2.573684,-0.120595c0.835629,-0.004632 1.658674,0.129515 2.48501,0.252169c0.499519,0.074107 0.976579,0.201392 1.446669,0.331422c0.525269,0.145297 1.006782,0.414449 1.482293,0.618928c0.068345,0.159021 0.116361,0.270867 0.175606,0.409131c0.10881,-0.02333 0.201744,-0.0434 0.314426,-0.067417c0.240272,0.273955 0.486353,0.554943 0.732628,0.835759c0.030784,-0.020414 0.061762,-0.040999 0.09274,-0.061241c0.013746,0.104984 0.027493,0.209969 0.039884,0.305176c-0.556634,0.278243 -1.102233,0.550997 -1.73457,0.86698c-0.061569,-0.015782 -0.231366,-0.059182 -0.331464,-0.084742c-1.148119,0.167598 -2.228474,0.344974 -3.315605,0.477233c-0.731466,0.089031 -1.472806,0.113219 -2.209694,0.168456c-0.21975,0.016468 -0.438531,0.044087 -0.658474,0.059869c-1.001555,0.072391 -2.004852,0.210827 -3.004471,0.192128c-0.825755,-0.015439 -1.522565,0.212885 -2.007175,0.42577c-1.124305,0.269323 -2.020922,0.484095 -2.989563,0.716193c-0.24066,0.267093 -0.524301,0.581875 -0.837759,0.930108c0.264668,0.134318 0.246274,0.334338 0.218975,0.55357c-0.094483,0.758564 -0.19942,1.514213 -0.417427,2.255108c-0.038142,0.129515 -0.017231,0.272925 -0.024589,0.435034c0.510555,-0.106528 0.972513,-0.217174 1.441054,-0.297971c1.059445,-0.182865 2.10766,-0.408788 3.186079,-0.517203c0.666993,-0.067073 1.315593,-0.277557 2.008143,-0.431603c0.255181,0.139979 0.21975,0.378081 0.115586,0.591824c-0.117522,0.24119 -0.30823,0.42903 -0.565928,0.597142c-0.709782,0.462652 -1.397878,0.946404 -2.182007,1.315222c-0.237562,0.111675 -0.403487,0.337426 -0.621688,0.488727c-0.733402,0.508283 -1.540571,0.875042 -2.477265,0.993922c-0.152179,0.019213 -0.293129,0.109959 -0.432916,0.165196c-0.365539,-0.091604 -0.72256,-0.180978 -1.082678,-0.271038c-0.280157,0.228153 -0.379673,0.543964 -0.518299,0.842449c-0.096225,0.207224 -0.210843,0.40793 -0.335723,0.646375c0.033301,0.042371 0.0879,0.112189 0.172702,0.220262c-0.095063,0.378596 -0.046467,0.828383 -0.296807,1.120864c-0.130688,0.559403 -0.241434,1.033377 -0.371348,1.589863c0.511523,-0.119737 0.945988,-0.221805 1.380841,-0.323188c0.387418,-0.090403 0.775997,-0.176861 1.162253,-0.270867c0.458667,-0.111503 0.904749,-0.046831 1.421693,0.03448c1.011623,-0.13226 2.099335,-0.274469 3.219961,-0.420967c0.043563,-0.041513 0.110552,-0.104984 0.177736,-0.168799c0.167281,0.192643 0.323719,0.175317 0.498744,0.001887c-0.201744,-0.15782 -0.354891,-0.059526 -0.510555,0.010636z"/>
    <path stroke="null" fill="#9ACEE6" id="svg_7" d="m57.701591,37.861318c0.029235,-0.063643 0.058277,-0.127285 0.090223,-0.197103c0.087319,0.015954 0.162053,0.029505 0.236981,0.043229c0.03214,-0.020757 0.071056,-0.036882 0.09487,-0.063471c0.543662,-0.603146 1.0699,-1.219673 1.636989,-1.804807c0.191676,-0.197789 0.487128,-0.316669 0.735145,-0.471744c0.034463,-0.013209 0.068926,-0.026418 0.016457,-0.006347c0.023233,-0.045116 0.007938,-0.015267 -0.007551,0.014581c-0.054986,-0.016811 -0.109972,-0.033622 -0.223622,-0.068446c0.430593,-0.163138 0.640662,-0.504509 1.006008,-0.729574c0.062149,-0.222492 0.129526,-0.46351 0.202905,-0.7258c0.170379,-0.075479 0.345985,-0.153531 0.520235,-0.230726c-0.030784,-0.127285 -0.059052,-0.244449 -0.085189,-0.352865c0.405036,-0.250453 0.91501,-0.30346 3.030802,-0.323359c0.152179,0.299 0.273574,0.630936 0.707845,0.7692c-0.109391,0.150615 -0.181414,0.249767 -0.267572,0.368647c0.011036,0.103098 0.024201,0.224207 0.036205,0.337426c-0.404262,0.522178 -1.151023,0.736092 -1.412206,1.335121c-0.14095,0.040484 -0.263893,0.075822 -0.463894,0.133289c0.128946,0.096064 0.198452,0.147699 0.293322,0.218546c-0.077445,0.420796 -0.217813,0.831642 -0.501455,1.204234c-0.11152,0.146498 -0.21762,0.313581 -0.254793,0.483581c-0.087706,0.401583 -0.346178,0.710189 -0.622656,1.026c0.010649,0.112018 0.022265,0.232784 0.036399,0.382198c-0.249566,0.232441 -0.432916,0.47792 -0.437757,0.85926c-0.00484,0.391633 -0.220718,0.78138 -0.345985,1.171298c-0.016457,0.051291 -0.04395,0.099838 -0.06699,0.149586c-0.219362,0.475861 -0.43524,0.952923 -0.659249,1.427069c-0.270282,0.571754 -0.542501,1.142993 -0.823432,1.710801c-0.1758,0.355266 -0.394194,0.695436 -0.546954,1.057907c-0.128558,0.304832 -0.327011,0.57913 -0.450341,0.880189c-0.121782,0.297285 -0.23853,0.615326 -0.244919,0.926162c-0.009681,0.47466 -0.189353,0.893912 -0.410651,1.300298c-0.215877,0.39678 -0.499519,0.764397 -0.745987,1.148654c-0.217426,0.33897 -0.432336,0.679654 -0.632337,1.026687c-0.078994,0.137063 -0.103195,0.298142 -0.173283,0.44018c-0.126041,0.255599 -0.245887,0.51686 -0.408521,0.753933c-0.206584,0.301058 -0.45886,0.568151 -0.424204,0.963216c0.012004,0.13672 -0.132624,0.287507 -0.216458,0.426628c-0.281899,0.468656 -0.518686,0.956182 -1.051507,1.276797c-0.269508,0.162108 -0.460409,0.4268 -0.712879,0.626648c-0.09487,0.197275 -0.059439,0.46797 -0.435627,0.564549c-0.140756,-0.050948 -0.322945,-0.116649 -0.461571,-0.16674c-0.749666,0.125398 -1.389166,-0.030535 -1.98704,-0.379625c-0.118491,0.042543 -0.226526,0.081483 -0.390709,0.140494c-0.229817,-0.108587 -0.488483,-0.241361 -0.75741,-0.355438c-0.327979,-0.139122 -0.59768,-0.361442 -1.000974,-0.40021c-0.241241,-0.023158 -0.457699,-0.248909 -0.69681,-0.390433c0.015295,-0.332966 0.029816,-0.648262 0.045112,-0.979512c-0.331076,-0.362986 -0.791873,-0.67468 -0.860992,-1.215213c-0.014715,-0.115277 -0.133592,-0.218546 -0.195354,-0.33125c-0.209295,-0.38237 -0.414523,-0.766455 -0.640468,-1.18605c0.164183,-0.47792 0.330883,-0.951208 0.487709,-1.427069c0.03911,-0.118708 0.073573,-0.247365 0.063698,-0.368475c-0.065247,-0.796304 -0.143079,-1.591922 -0.217233,-2.387711c-0.023233,-0.249424 -0.042788,-0.499362 -0.073573,-0.748272c-0.060988,-0.493873 -0.119071,-0.988432 -0.196323,-1.480419c-0.084221,-0.537102 -0.182382,-1.072832 -0.288288,-1.606846c-0.035237,-0.17789 -0.146564,-0.346174 -0.166313,-0.523893c-0.099904,-0.894427 -0.278801,-1.775988 -0.467573,-2.658578c-0.175606,-0.821006 -0.26854,-1.655736 -0.411425,-2.482746c-0.097,-0.561804 -0.21762,-1.120349 -0.325655,-1.671003c-0.351793,-0.202936 -0.670866,-0.38683 -1.001942,-0.577758c0.052856,-0.032079 0.116167,-0.070161 0.174057,-0.105328c-0.089836,-0.208082 -0.173864,-0.402784 -0.257891,-0.597314c0.027687,0.001887 0.055179,0.003602 0.082866,0.005489c0.046273,-0.189727 0.09274,-0.379282 0.139013,-0.569009c-0.019555,-0.003431 -0.03911,-0.006862 -0.058471,-0.010293c0.096612,-0.206881 0.193031,-0.413762 0.294677,-0.631622c0.525657,0.031736 1.067576,-0.185267 1.659448,-0.109616c0.560894,0.071705 1.14444,0.003088 1.727793,-0.003774c0.085383,0.097093 0.169798,0.192986 0.281125,0.319757c0.103389,-0.070161 0.192644,-0.130888 0.307069,-0.208597c0.044337,0.089374 0.087319,0.176003 0.141143,0.284762c0.175606,-0.081826 0.349857,-0.163138 0.511523,-0.238617c0.442403,0.043229 0.757023,0.258687 1.066608,0.527324c0.047435,0.223006 0.098936,0.464196 0.160504,0.753247c0.109584,0.071705 0.248017,0.169828 0.395162,0.256286c0.100291,0.059011 0.214135,0.099838 0.31946,0.152674c0.505714,0.253369 0.911138,0.536587 1.152572,1.071631c0.260214,0.576557 0.527399,1.153114 0.762638,1.739277c0.072604,0.180807 0.105906,0.383399 0.105325,0.575871c-0.001936,0.6191 0.3152,1.196 0.248017,1.832082c-0.048016,0.453389 0.112489,0.92256 0.083834,1.379894c-0.021104,0.338455 -0.056728,0.664559 0.06273,0.990319c0.011617,0.031736 0.04395,0.057295 0.091772,0.117164c0.47706,-0.150958 0.465637,-0.608979 0.719656,-0.894941c0.052275,0.079939 0.110552,0.169313 0.205616,0.31461c0.310941,-0.31787 0.644534,-0.581189 0.864477,-0.905062c0.239885,-0.352693 0.58858,-0.614125 0.849569,-0.944346c0.238724,-0.302088 0.526818,-0.574155 0.754699,-0.881904c0.098161,-0.132603 0.099517,-0.321644 0.161666,-0.545679c0.141337,-0.143925 0.336304,-0.342229 0.531271,-0.540533c0.024782,0.01441 0.049371,0.028991 0.074153,0.0434c-0.028655,-0.010979 -0.05789,-0.021443 -0.087319,-0.032079zm5.302451,-1.430499c-0.143079,0.119051 -0.285965,0.238274 -0.434853,0.362128c0.030784,0.07119 0.06486,0.150272 0.099129,0.229525c-0.52585,0.185095 -0.72043,0.723913 -0.462152,1.282115c0.207939,-0.12008 0.41433,-0.239303 0.638532,-0.368818c-0.071636,-0.057467 -0.113069,-0.090746 -0.154696,-0.124026l0.015102,0.014581c0.050533,-0.071362 0.093321,-0.148385 0.15276,-0.213228c0.367863,-0.40124 0.630401,-0.840562 0.680546,-1.430156c-0.173089,0.062956 -0.293709,0.1067 -0.41433,0.150443c-0.022265,-0.069818 -0.044531,-0.139636 -0.092159,-0.288879c-0.109778,0.164167 -0.169217,0.253369 -0.252664,0.378081c0.119652,0.00446 0.172315,0.006347 0.224784,0.008234zm-1.361286,1.76844c-0.116167,0.258687 -0.19884,0.442925 -0.285578,0.635911c0.302035,0.069303 0.399228,-0.050262 0.462345,-0.237073c-0.045112,-0.101725 -0.095257,-0.214772 -0.176768,-0.398838z"/>
    <path stroke="null" fill="#9ACEE6" id="svg_8" d="m47.958262,7.786007c0.060794,-0.060383 0.121588,-0.120766 0.216458,-0.214772c-0.22459,-0.117336 -0.40736,-0.212885 -0.662927,-0.346517c1.205622,0.000686 2.195947,-0.45356 3.220348,-0.809341c1.307074,-0.453904 2.661003,-0.756677 4.039714,-0.977968c0.452084,-0.072563 0.902619,-0.154389 1.356639,-0.214601c1.007944,-0.133632 2.016275,-0.267951 3.027317,-0.379797c0.795164,-0.088002 1.595944,-0.200363 2.392657,-0.191271c0.494485,0.005661 0.990325,-0.047174 1.487327,0.000686c0.496615,0.047861 1.003491,0.020585 1.497395,0.079939c0.866026,0.10447 1.725857,0.249252 2.588011,0.378768c0.353923,0.053178 0.707071,0.110302 1.052668,0.164338c0.224977,0.199505 0.431948,0.383056 0.679578,0.602632c-0.193225,0.07445 -0.318104,0.122653 -0.45189,0.174116c0.027299,0.217002 0.054792,0.436235 0.081704,0.651693c-0.177736,0.299686 -0.358376,0.577929 -0.800392,0.610694c-0.038529,0.070676 -0.078994,0.145126 -0.072604,0.133461c-0.397292,0.255771 -0.699133,0.489413 -1.041245,0.659755c-0.383158,0.190756 -0.788388,0.373621 -1.210268,0.468142c-0.394968,0.088516 -0.757216,0.182694 -1.054024,0.438808c-0.067183,0.057982 -0.170379,0.087659 -0.262151,0.118193c-0.465443,0.155761 -0.932435,0.307406 -1.428276,0.4702c0.0091,0.478606 -0.110359,0.959956 0.007938,1.457775c0.062924,0.264863 0.031172,0.56472 -0.036786,0.833014c-0.123718,0.488898 -0.126041,0.976596 -0.05789,1.463436c0.039497,0.281846 -0.193806,0.549625 -0.023233,0.827696c-0.113069,0.644317 -0.04608,1.317452 -0.390709,1.924887c0.122556,0.384257 -0.371735,0.72031 -0.110552,1.115374c-0.175412,0.087487 -0.209875,0.219575 -0.171734,0.402269c0.248985,-0.099495 0.115006,-0.281331 0.15973,-0.412047c0.134173,-0.088002 0.268153,-0.176003 0.436014,-0.286134c0.204067,0.489585 -0.17154,0.899573 -0.123718,1.3461c-0.160311,0.014581 -0.272218,0.024874 -0.410264,0.037396c-0.073573,0.264005 -0.161666,0.517546 -0.212005,0.776748c-0.064086,0.330564 -0.05092,0.679826 -0.36128,0.933882c0.093708,0.508111 -0.390709,0.901803 -0.343855,1.414374c0.021104,0.23124 -0.138045,0.473116 -0.198065,0.713449c-0.028074,0.112532 -0.014715,0.233299 0.067183,0.369333c0.189159,-0.248738 0.378511,-0.497304 0.636403,-0.836445c0.058277,0.356295 0.045305,0.58462 -0.082091,0.835416c-0.255181,0.501936 -0.461377,1.02257 -0.44918,1.579742c-0.171927,0.324903 -0.34037,0.64363 -0.548696,1.037665c-0.011036,0.238445 -0.02575,0.560089 -0.03698,0.801279c-0.154115,0.29677 -0.269895,0.519948 -0.370767,0.714478c-0.217233,0.198476 -0.412974,0.377395 -0.672221,0.614296c-0.426721,0.870068 -0.556828,1.896926 -0.815106,2.894793c0.136496,0.387002 -0.039884,0.73249 -0.201937,1.13716c-0.161085,0.010121 -0.345404,0.021614 -0.552762,0.034652c-0.010068,0.02779 -0.030978,0.085429 -0.077251,0.212885c-0.062537,-0.162451 -0.104357,-0.27121 -0.167862,-0.436235c-0.2364,0.216145 -0.426527,0.390089 -0.596325,0.545165c-0.181995,-0.014067 -0.331851,-0.02556 -0.553343,-0.042543c-0.061569,-0.03774 -0.189353,-0.115792 -0.328947,-0.200877c-0.201163,0.064672 -0.387224,0.124369 -0.592453,0.190242c-0.556247,-0.317355 -0.984711,-0.762853 -1.360318,-1.171298c-0.177929,-0.510513 -0.324881,-0.971964 -0.500681,-1.424667c-0.169217,-0.435548 -0.360118,-0.864921 -0.354891,-1.334264c0.009874,-0.889623 -0.024782,-1.783021 0.056728,-2.66767c0.074541,-0.808998 0.286739,-1.607532 0.419944,-2.413099c0.05789,-0.349777 0.069894,-0.705558 0.102227,-1.058594c0.006583,-0.071362 -0.008713,-0.1501 0.020329,-0.212885c0.388579,-0.837989 0.357989,-1.749398 0.587032,-2.615692c0.141143,-0.5335 0.225171,-1.078664 0.351793,-1.615595c0.31946,-1.35502 0.651311,-2.707811 0.971351,-4.062831c0.064666,-0.273612 0.099517,-0.552541 0.121007,-0.836445c0.206584,-0.421996 0.360893,-0.853599 0.340951,-1.327059c-0.513459,-0.018527 -1.017818,-0.052321 -1.521984,-0.05112c-0.604844,0.001544 -1.209494,0.046317 -1.814338,0.047003c-0.553924,0.000686 -1.058864,-0.200363 -1.557028,-0.384257c-0.444146,-0.163824 -0.877449,-0.358869 -1.291586,-0.575871c-0.44492,-0.233299 -0.861961,-0.508626 -1.216658,-0.720996c-0.074928,-0.103269 -0.105325,-0.130888 -0.117135,-0.163652c-0.084028,-0.235014 -0.133979,-0.484095 -0.254406,-0.702813c-0.108229,-0.196417 -0.292741,-0.360069 -0.443565,-0.53796l-0.01607,0.01338zm11.691066,18.306928c0.034657,0.020585 0.069313,0.040999 0.10397,0.061412c0.192257,-0.201049 0.162828,-0.44241 0.125073,-0.813458c-0.100872,0.331079 -0.164957,0.541562 -0.229043,0.752046zm0.541726,-1.531882c-0.244532,0.203279 -0.244532,0.203279 -0.165151,0.543792c0.065828,-0.216316 0.115393,-0.379968 0.165151,-0.543792zm0.168442,-0.624589c0.059245,-0.052321 0.08364,-0.064329 0.082866,-0.074964c-0.001936,-0.029505 -0.014521,-0.058496 -0.02304,-0.087659c-0.01394,0.037911 -0.02788,0.075651 -0.059826,0.162623z"/>
    <path stroke="null" fill="#9ACEE6" id="svg_9" d="m35.481132,34.691884c0.095451,-0.089717 0.190127,-0.179777 0.286933,-0.268294c0.013166,-0.012008 0.036205,-0.015267 0.070475,-0.028648c0.036786,0.028648 0.082672,0.058496 0.120233,0.095207c0.03911,0.038254 0.070281,0.083198 0.109778,0.131059c0.122944,-0.009435 0.241434,-0.018527 0.38219,-0.029162c0.082091,-0.164167 0.160892,-0.321472 0.238336,-0.476376c0.503198,0.053007 0.082479,0.444812 0.32856,0.607778c0.244338,-0.115792 0.500681,-0.237244 0.84105,-0.398495c0.350244,0.0434 0.780256,0.109445 1.21356,0.144268c0.192838,0.01561 0.39613,-0.01561 0.587806,-0.053007c0.615492,-0.12008 1.190714,-0.059697 1.747542,0.272754c0.030978,0.419938 0.173864,0.813287 0.594776,1.081923c0.186642,0.448071 0.387611,0.892025 0.55586,1.345414c0.131075,0.352865 0.270476,0.713105 0.313845,1.078664c0.034269,0.288536 -0.07183,0.590109 -0.131269,0.991692c0.067377,0.310322 0.145209,0.729574 -0.060407,1.145566c-0.030784,0.06227 -0.026718,0.141695 -0.024201,0.212714c0.026331,0.752903 -0.275316,1.449712 -0.464475,2.165905c-0.054018,0.204137 -0.042207,0.428344 -0.130301,0.617727c-0.151017,0.324903 -0.357214,0.629564 -0.592259,1.032004c0.050339,0.282189 -0.243177,0.539332 -0.48887,0.808483c-0.133979,0.14667 -0.255568,0.292138 -0.369412,0.454418c-0.331851,0.473288 -0.843761,0.802136 -1.353154,1.114517c-0.612395,0.37568 -1.339988,0.513429 -2.043574,0.685659c-0.203873,0.049919 -0.442016,0.013895 -0.660217,-0.011493c-0.365152,-0.042371 -0.726626,-0.108072 -1.064479,-0.212885c-0.302809,-0.115449 -0.605812,-0.230726 -1.013365,-0.386144c-0.190127,-0.169828 -0.469896,-0.419766 -0.749859,-0.669877c-0.456924,-0.325589 -0.991293,-0.513258 -1.680358,-0.487354c-0.401938,-0.341028 -0.841631,-0.711218 -1.27629,-1.086384c-0.070862,-0.061241 -0.13882,-0.136892 -0.173476,-0.217688c-0.328947,-0.766284 -0.726239,-1.506493 -0.929531,-2.318407c-0.216071,-0.862005 -0.277059,-1.720751 -0.233496,-2.597165c0.02517,-0.506567 -0.018587,-1.015708 -0.027493,-1.523819c-0.00213,-0.124197 0.010261,-0.248738 0.012585,-0.300372c0.166506,-0.251997 0.292548,-0.442753 0.416072,-0.629907c-0.094483,-0.078224 -0.133592,-0.117507 -0.18064,-0.147184c-0.031559,-0.019899 -0.074347,-0.025731 -0.112295,-0.037911c0.073573,-0.109616 0.147339,-0.219232 0.231947,-0.344974c-0.105712,-0.035338 -0.177929,-0.059354 -0.272993,-0.091089c0.00697,-0.149929 0.014134,-0.306548 0.022072,-0.47912c0.149856,-0.135691 0.304552,-0.272754 0.455182,-0.412905c0.165345,-0.153703 0.334755,-0.304832 0.487321,-0.468142c0.100291,-0.107215 0.161085,-0.243935 0.262731,-0.349605c0.124105,-0.129001 0.272799,-0.239303 0.427108,-0.371734c0.060988,0.104127 0.104163,0.178233 0.171347,0.293167c0.096419,-0.062785 0.186448,-0.121281 0.333593,-0.217174c0.31249,0.095207 0.702811,0.214258 1.11656,0.340342c0.092934,-0.028648 0.204454,-0.062956 0.34037,-0.104813c0.623624,0.240675 1.263125,0.487354 1.967098,0.759251c-0.006776,-0.268465 -0.012391,-0.487869 -0.017425,-0.678625c0.177349,-0.176861 0.264861,0.289565 0.430206,0.007548l-0.015295,0.012694zm1.203298,9.644163c0.36128,-0.398495 0.660798,-0.676224 0.891002,-0.993579c0.490419,-0.675881 0.893713,-1.40168 1.089455,-2.18529c0.151598,-0.607092 0.151598,-1.236999 -0.402326,-1.740821c-0.020136,-0.018355 -0.019361,-0.054894 -0.02788,-0.081655c0.078026,-0.058668 0.152953,-0.114934 0.219556,-0.165196c-0.14095,-0.426628 -0.813558,-0.448586 -0.846084,-0.923417c0.073379,-0.119394 0.138433,-0.225236 0.172508,-0.280816c-0.070668,-0.226952 -0.123912,-0.398152 -0.17851,-0.573641c-0.247823,-0.120252 -0.457311,-0.043744 -0.693712,0.141866c-0.008713,0.188698 -0.018974,0.409817 -0.026525,0.576385c-0.660798,0.878645 -1.03079,1.81956 -1.268352,2.792553c-0.150243,0.137406 -0.289837,0.264863 -0.41917,0.382885c-0.130301,0.737979 -0.095063,1.447654 0.206778,2.133655c0.092934,0.211341 0.17851,0.451673 0.557409,0.441038c0.164183,-0.118879 0.347533,-0.251826 0.543275,-0.393692c0.054211,0.258173 0.104744,0.498676 0.182576,0.869724z"/>
    <path stroke="null" fill="#9ACEE6" id="svg_10" d="m49.375114,13.734785c0.005421,0.011322 0.049371,0.104984 0.093127,0.197961c0.121782,0.029677 0.233883,0.057124 0.319847,0.078224c0,0.281503 0,0.538303 0,0.650664c0.309586,0.351149 0.523527,0.59354 0.74831,0.848625c-0.033495,0.299686 -0.052469,0.573984 -0.097,0.843993c-0.093321,0.56575 -0.183157,1.133386 -0.307843,1.692274c-0.077445,0.347032 -0.223622,0.677424 -0.325268,1.019482c-0.101259,0.340685 -0.181608,0.68806 -0.27822,1.030289c-0.14153,0.501078 -0.279188,1.003528 -0.436982,1.499117c-0.179091,0.561976 -0.378899,1.116918 -0.59981,1.762436c-0.011617,0.008577 -0.108616,0.079425 -0.218201,0.159707c0.169604,0.803166 -0.303196,1.466352 -0.433497,2.223887c-0.090417,0.045974 -0.179478,0.091089 -0.306488,0.15559c-0.063311,0.302431 -0.125848,0.654609 -0.548503,0.731975c-0.051114,0.692177 -0.394775,1.259985 -0.726045,1.793313c-0.261183,0.420624 -0.41007,0.928564 -0.785871,1.267533c-0.129333,0.116649 -0.286352,0.19899 -0.452665,0.312037c-0.175606,0.37122 -0.362635,0.766284 -0.587225,1.241287c-0.055373,-0.169656 -0.077832,-0.23896 -0.113263,-0.347547c-0.098548,0.045116 -0.195548,0.089546 -0.297969,0.136548c-0.059245,-0.052835 -0.119846,-0.107043 -0.200195,-0.17892c-0.080543,0.100353 -0.161666,0.201735 -0.254019,0.317012c-0.36612,-0.013209 -0.726626,-0.026246 -1.085389,-0.039283c-0.612588,-0.425084 -1.024788,-0.996495 -1.163221,-1.772214c-0.018393,-0.103098 -0.057696,-0.206023 -0.10668,-0.297285c-0.374833,-0.700411 -0.491387,-1.494485 -0.538048,-2.264371c-0.089449,-1.473214 -0.055179,-2.946427 0.208907,-4.424787c0.308424,-1.725382 0.85499,-3.371683 1.326823,-5.044916c0.178317,-0.632137 0.295065,-1.284345 0.412006,-1.932435c0.035625,-0.197618 -0.021491,-0.41239 -0.038529,-0.65581c0.048016,-0.137235 0.109972,-0.313924 0.173089,-0.494045c0.122556,-0.07445 0.244338,-0.148385 0.383545,-0.232784c0.073185,-0.790471 0.40097,-1.367715 1.245699,-1.498431c0.506683,0.182351 1.151217,-0.074964 1.560319,0.432632c1.225951,-0.166397 2.339801,-0.018355 3.429255,0.788241z"/>
    <path stroke="null" fill="#9ACEE6" id="svg_11" d="m84.985004,25.472805c-0.134754,-0.875728 0.122944,-1.748198 0.69042,-2.220628c-0.211424,0.748272 -0.409489,1.451599 -0.612201,2.153897c-0.00697,0.023845 -0.061569,0.03671 -0.093902,0.054722l0.015683,0.012008z"/>
    <path stroke="null" fill="#9ACEE6" id="svg_12" d="m87.552686,17.276296c0.097387,-0.226266 0.194967,-0.452703 0.283061,-0.657525c0.139594,-0.030535 0.246274,-0.053865 0.353148,-0.077194l-0.006196,-0.005146c0,0.051291 0.024976,0.123168 -0.003872,0.150787c-0.206778,0.197961 -0.424397,0.387173 -0.638726,0.578959l0.012585,0.010121z"/>
    <path stroke="null" fill="#9ACEE6" id="svg_13" d="m56.719978,38.045384c-0.071443,0.346174 -0.128558,0.623217 -0.185867,0.900431c-0.094483,-0.302259 -0.085383,-0.587536 0.185867,-0.900431z"/>
    <path stroke="null" fill="#9ACEE6" id="svg_14" d="m15.411895,6.233368c0.011036,-0.239474 0.018974,-0.410503 0.026718,-0.582046c0.127397,-0.045631 0.225171,-0.080454 0.423817,-0.151644c-0.171927,0.28013 -0.288482,0.470029 -0.450535,0.733691z"/>
    <path stroke="null" fill="#9ACEE6" id="svg_15" d="m86.248515,20.282592c0.035431,0.220605 0.070668,0.441381 0.112489,0.700926c-0.019942,0.015267 -0.076864,0.058668 -0.18064,0.137921c0.014134,-0.30569 0.02575,-0.559403 0.037367,-0.812944c0.010261,-0.008749 0.020523,-0.017326 0.030784,-0.025903z"/>
    <path stroke="null" fill="#9ACEE6" id="svg_16" d="m85.998756,21.73848c-0.043369,0.201392 -0.086545,0.402784 -0.129914,0.604175c-0.067183,-0.225408 -0.060407,-0.437607 0.147339,-0.59028l-0.017425,-0.013895z"/>
    <path stroke="null" fill="#9ACEE6" id="svg_17" d="m86.391788,19.477711c0.160892,0.279444 -0.053243,0.432461 -0.197871,0.598171c0.061181,-0.185095 0.122363,-0.37019 0.197871,-0.598171z"/>
    <path stroke="null" fill="#9ACEE6" id="svg_18" d="m15.251584,4.528571c0.13185,-0.199676 0.34037,-0.190413 0.599229,-0.199162c-0.191095,0.21563 -0.39826,0.212885 -0.613363,0.185781l0.014134,0.01338z"/>
    <path stroke="null" fill="#9ACEE6" id="svg_19" d="m84.969321,25.460797c-0.00697,0.151644 -0.01394,0.303117 -0.02091,0.454761c-0.102614,-0.161079 -0.164377,-0.321472 0.036593,-0.442753l-0.015683,-0.012008z"/>
    <path stroke="null" fill="#9ACEE6" id="svg_20" d="m85.620632,22.812341c0.040852,-0.088173 0.081704,-0.176346 0.122363,-0.26452c0.021685,0.005489 0.043563,0.010807 0.065247,0.016297c-0.035625,0.091776 -0.071056,0.183551 -0.106874,0.275327c-0.026718,-0.00892 -0.053631,-0.018012 -0.080736,-0.027104z"/>
    <path stroke="null" fill="#9ACEE6" id="svg_21" d="m77.463759,20.758796c-0.051888,-0.071705 -0.103582,-0.14341 -0.155277,-0.215115c0.027106,-0.015267 0.054018,-0.030535 0.081123,-0.045974c0.052662,0.07119 0.105325,0.142381 0.157987,0.2134c-0.028074,0.016125 -0.055954,0.031907 -0.083834,0.047689z"/>
    <path stroke="null" fill="#9ACEE6" id="svg_22" d="m71.149105,54.706697c-0.056341,0.078395 -0.112876,0.156791 -0.17154,0.238617c-0.062537,-0.159021 -0.017812,-0.243935 0.182189,-0.227981l-0.010649,-0.010636z"/>
    <path stroke="null" fill="#9ACEE6" id="svg_23" d="m85.470583,15.963818c0.029429,-0.083542 0.058664,-0.167083 0.088093,-0.250625c0.037754,0.014753 0.075702,0.029505 0.113457,0.044258c-0.044144,0.077023 -0.088287,0.154046 -0.132237,0.231069c-0.023233,-0.008406 -0.046273,-0.016468 -0.069313,-0.024702z"/>
    <path stroke="null" fill="#9ACEE6" id="svg_24" d="m88.188895,16.541576c-0.005034,-0.100353 -0.010068,-0.200534 -0.01607,-0.320614c0.19884,0.127285 0.128558,0.222492 0.009874,0.315297l0.006196,0.005318z"/>
    <path stroke="null" fill="#9ACEE6" id="svg_25" d="m87.360816,17.915638c0.065054,-0.050777 0.130301,-0.101382 0.195354,-0.152159c0.017038,0.009606 0.033882,0.019213 0.05092,0.028819c-0.046273,0.069818 -0.092547,0.139808 -0.138626,0.209626c-0.036012,-0.028648 -0.07183,-0.057467 -0.107648,-0.086286z"/>
    <path stroke="null" fill="#9ACEE6" id="svg_26" d="m54.000892,14.976758c-0.042014,-0.047003 -0.084028,-0.094006 -0.126041,-0.141009c0.024395,-0.015782 0.04879,-0.031564 0.073185,-0.047517c0.038529,0.049233 0.077058,0.098294 0.115393,0.147527c-0.020716,0.013723 -0.041627,0.027275 -0.062537,0.040999z"/>
    <path stroke="null" fill="#9ACEE6" id="svg_27" d="m55.257627,35.113366c-0.052856,-0.004289 -0.106099,-0.00669 -0.158181,-0.01441c-0.012004,-0.001715 -0.020329,-0.022472 -0.030397,-0.03448c0.065828,-0.00995 0.13185,-0.020071 0.197678,-0.03002c-0.003098,0.026246 -0.006196,0.052492 -0.0091,0.07891z"/>
    <path stroke="null" fill="#9ACEE6" id="svg_28" d="m61.494256,35.036343c-0.029042,-0.099324 -0.038335,-0.130716 -0.053243,-0.181664c0.068926,-0.006862 0.13456,-0.01338 0.290224,-0.028991c-0.11094,0.098637 -0.156826,0.139465 -0.236981,0.210655z"/>
    <path stroke="null" fill="#9ACEE6" id="svg_29" d="m86.016181,21.752375c0.002904,-0.062099 0.005615,-0.124026 0.008519,-0.186124c0.022653,0.006004 0.045112,0.012008 0.067571,0.017841c-0.031172,0.051463 -0.062537,0.102926 -0.093708,0.154389l0.017619,0.013895z"/>
    <path stroke="null" fill="#9ACEE6" id="svg_30" d="m77.333071,21.344788c0.016263,-0.004803 0.032527,-0.009606 0.04879,-0.014238c0.004453,0.019213 0.0091,0.038597 0.013553,0.05781c-0.017619,-0.002402 -0.037754,-0.001029 -0.052082,-0.008406c-0.008325,-0.00446 -0.007164,-0.022987 -0.010261,-0.035166z"/>
    <path stroke="null" fill="#9ACEE6" id="svg_31" d="m43.14623,11.330434c-0.044918,-0.001544 -0.089836,-0.003259 -0.134754,-0.004975c0.000387,-0.009606 0.000774,-0.019041 0.001355,-0.028648c0.044918,0.001544 0.089836,0.003259 0.134754,0.004975c-0.000581,0.009606 -0.000968,0.019041 -0.001355,0.028648z"/>
    <path stroke="null" fill="#9ACEE6" id="svg_32" d="m87.279693,18.767693c-0.000387,-0.084914 -0.000581,-0.11339 -0.000581,-0.141866c0.008713,0.001029 0.017619,0.002059 0.026331,0.003088c-0.005228,0.02779 -0.010455,0.055752 -0.02575,0.138779z"/>
    <path stroke="null" fill="#9ACEE6" id="svg_33" d="m87.079498,19.627125c0.013359,-0.048547 0.026718,-0.096922 0.012004,-0.043057c0.039497,-0.039798 0.005808,-0.005832 -0.02788,0.028133l0.015876,0.014924z"/>
    <path stroke="null" fill="#9ACEE6" id="svg_34" d="m62.85438,29.415213c0.004647,-0.029334 0.009487,-0.058668 0.014521,-0.08783c-0.00484,0.029334 -0.009681,0.058496 -0.014521,0.08783z"/>
    <path stroke="null" fill="#9ACEE6" id="svg_35" d="m18.485098,36.167843c-0.034269,-0.039455 -0.068732,-0.07891 -0.024976,-0.028648c-0.011229,-0.063814 -0.001936,-0.010807 0.007357,0.0422l0.017619,-0.013552z"/>
    <path stroke="null" fill="#9ACEE6" id="svg_36" d="m35.497008,36.24864c-0.019748,-0.013037 -0.03969,-0.026075 -0.049177,-0.032422c0.006583,0.00892 0.019942,0.027275 0.033301,0.045287l0.015876,-0.012866z"/>
    <path stroke="null" fill="#9ACEE6" id="svg_37" d="m77.400061,21.105485c0.016263,-0.024531 0.032527,-0.049061 0.01607,-0.024359c0.021685,-0.007205 -0.005034,0.001715 -0.031946,0.010464l0.015876,0.013895z"/>
    <path stroke="null" fill="#9ACEE6" id="svg_38" d="m71.28715,54.614064c-0.045886,0.030878 -0.091966,0.061756 -0.138045,0.092633l0.010649,0.010636c0.040078,-0.03671 0.079962,-0.073592 0.120039,-0.110302l0.007357,0.007033z"/>
    <path stroke="null" fill="#9ACEE6" id="svg_39" d="m77.384378,21.09159c-0.011036,0.02333 -0.021878,0.046831 -0.024395,0.052149c0.003485,-0.003259 0.021878,-0.020757 0.040271,-0.038254l-0.015876,-0.013895z"/>
    <path stroke="null" fill="#9ACEE6" id="svg_40" d="m24.770711,53.802149c0.012391,-0.020757 0.024589,-0.041685 0.024589,-0.041685s-0.019942,0.013552 -0.040078,0.027447l0.015489,0.014238z"/>
    <path stroke="null" fill="#9ACEE6" id="svg_41" d="m87.063622,19.612029c-0.016263,0.020928 -0.03272,0.042028 -0.033301,0.042886c0.000968,-0.000515 0.02517,-0.014238 0.049371,-0.02779l-0.01607,-0.015096z"/>
    <polygon stroke="null" fill="#9ACEE6" id="svg_42" points="86.2661361694336,19.31851690941835 86.30465698242188,19.309945508835767 86.29923248291016,19.33772977050944 "/>
    <path stroke="null" fill="#9ACEE6" id="svg_43" d="m87.479307,18.295606c-0.015102,0.01115 -0.030203,0.022301 -0.045499,0.033622c0.002517,-0.024531 0.005034,-0.049061 0.007551,-0.073592c0.012585,0.013209 0.025363,0.026589 0.037948,0.03997z"/>
    <path stroke="null" fill="#9ACEE6" id="svg_44" d="m15.23745,4.515191c0.004647,0.00446 0.009293,0.00892 0.014134,0.01338l-0.014134,-0.01338z"/>
    <path stroke="null" fill="#9ACEE6" id="svg_45" d="m47.974912,7.772798c-0.0182,-0.014067 -0.036593,-0.028133 -0.045112,-0.034823c0.005615,0.009435 0.017038,0.028648 0.028461,0.048032l0.016651,-0.013209z"/>
    <path stroke="null" fill="#9ACEE6" id="svg_46" d="m62.690004,37.811571c-0.01607,0.027618 -0.032333,0.055408 -0.014327,0.024702c-0.036399,0.012523 -0.003485,0.001201 0.029623,-0.010293l-0.015295,-0.01441z"/>
    <path stroke="null" fill="#9ACEE6" id="svg_47" d="m63.003849,38.000611c0.045499,-0.037396 0.091191,-0.074621 0.13669,-0.112018c-0.045499,0.037396 -0.090998,0.074621 -0.13669,0.112018z"/>
   </g>
   <path stroke="null" fill="#9ACEE6" id="svg_48" d="m48.338903,59.779918c-0.521978,-0.114248 -1.043956,-0.228324 -1.56574,-0.342743c-1.054024,-0.23124 -1.844929,-0.791158 -2.266809,-1.655221c-0.380641,-0.779321 -0.697584,-1.601357 -0.880354,-2.432655c-0.174444,-0.793216 -0.86138,-0.988261 -1.490812,-1.040582c-0.279769,-0.023158 -0.687323,0.561118 -0.932435,0.924961c-0.611039,0.907121 -1.052087,1.923858 -1.784715,2.738689c-0.357989,0.398152 -1.208913,0.459736 -1.848026,0.642944c-0.307649,0.088173 -0.708039,0.02333 -0.945795,0.17566c-0.28732,0.184066 -0.644534,0.550139 -0.605231,0.790471c0.037754,0.23124 0.530303,0.553742 0.844729,0.574155c1.450154,0.094692 2.168454,0.999068 2.790142,1.943071c0.461765,0.701097 0.69681,1.516957 1.075708,2.264543c0.126622,0.249939 0.435433,0.654781 0.575221,0.628706c0.399809,-0.074964 0.89139,-0.255256 1.101071,-0.537445c0.466024,-0.627505 0.75741,-1.354334 1.166512,-2.018378c0.442597,-0.718423 1.062736,-1.125839 2.069518,-1.260329c0.949473,-0.12677 1.836603,-0.620301 2.751033,-0.952408c-0.0182,-0.14787 -0.036205,-0.295569 -0.054018,-0.443439z"/>
   <path stroke="null" fill="#9ACEE6" id="svg_49" d="m99.184893,24.649741c-0.398647,-0.11339 -0.797101,-0.22678 -1.195554,-0.340342c-0.804845,-0.229525 -1.385487,-0.701955 -1.661191,-1.393103c-0.248598,-0.623388 -0.445308,-1.276968 -0.537273,-1.931234c-0.087706,-0.624418 -0.609684,-0.808312 -1.095263,-0.878816c-0.215877,-0.031221 -0.56767,0.40347 -0.780063,0.674508c-0.529335,0.675709 -0.93321,1.444566 -1.551413,2.042909c-0.302035,0.29231 -0.966898,0.299858 -1.474355,0.411875c-0.244338,0.054036 -0.551407,-0.015267 -0.745213,0.091776c-0.23427,0.129344 -0.533788,0.396951 -0.517718,0.585477c0.015489,0.181321 0.378511,0.455276 0.621494,0.485982c1.12082,0.142209 1.624211,0.878645 2.050157,1.641326c0.316362,0.566436 0.449761,1.211267 0.699133,1.809953c0.083253,0.200019 0.298937,0.529211 0.408908,0.515488c0.3152,-0.039283 0.707845,-0.156104 0.887711,-0.365387c0.399809,-0.465397 0.670091,-1.016222 1.027692,-1.512669c0.387224,-0.537102 0.893519,-0.824265 1.68365,-0.881046c0.745213,-0.053693 1.4639,-0.394893 2.194398,-0.609665c-0.005034,-0.115792 -0.010068,-0.231412 -0.015102,-0.347032z"/>
   <path stroke="null" fill="#9ACEE6" id="svg_50" d="m47.476555,4.146544c-0.393807,-0.086286 -0.787807,-0.172229 -1.181614,-0.258687c-0.795358,-0.17446 -1.392264,-0.597142 -1.710755,-1.249178c-0.287127,-0.58805 -0.526431,-1.208522 -0.664283,-1.835856c-0.131656,-0.598686 -0.650149,-0.745699 -1.124886,-0.785325c-0.211231,-0.017497 -0.518686,0.42354 -0.703586,0.69801c-0.461184,0.684629 -0.794003,1.451771 -1.346959,2.066753c-0.270089,0.300372 -0.9123,0.346861 -1.394587,0.485124c-0.232141,0.066559 -0.534369,0.017669 -0.713847,0.132603c-0.216845,0.13895 -0.486353,0.415135 -0.456731,0.596628c0.028461,0.17446 0.400196,0.417879 0.637371,0.433318c1.094295,0.071534 1.636408,0.754104 2.10553,1.466352c0.348502,0.529039 0.52585,1.14488 0.811815,1.708914c0.095644,0.188526 0.328753,0.494216 0.434078,0.474489c0.301841,-0.056438 0.672802,-0.192643 0.830983,-0.405528c0.351793,-0.473631 0.571543,-1.022055 0.880354,-1.523133c0.333981,-0.542077 0.802134,-0.849654 1.561868,-0.951208c0.716558,-0.095721 1.386068,-0.468142 2.076101,-0.718766c-0.013746,-0.111332 -0.027299,-0.222835 -0.040852,-0.334509z"/>
   <path stroke="null" fill="#9ACEE6" id="svg_51" d="m11.996967,41.522738c-0.464475,-0.101725 -0.928757,-0.203107 -1.393232,-0.305004c-0.937856,-0.20568 -1.641636,-0.704014 -2.01705,-1.472699c-0.338627,-0.693378 -0.62072,-1.424839 -0.783354,-2.164533c-0.155277,-0.705729 -0.76651,-0.879331 -1.326436,-0.925819c-0.248985,-0.020757 -0.61162,0.499362 -0.829627,0.823065c-0.543662,0.807111 -0.936114,1.711659 -1.588005,2.436772c-0.318492,0.354237 -1.075708,0.408959 -1.644347,0.571925c-0.273767,0.078567 -0.630013,0.020928 -0.841438,0.156447c-0.255761,0.163824 -0.573479,0.489585 -0.538435,0.703327c0.033688,0.20568 0.471832,0.492672 0.751602,0.510856c1.29023,0.084228 1.929343,0.888937 2.482493,1.728813c0.410845,0.623731 0.619946,1.349703 0.957024,2.014947c0.112682,0.22232 0.387418,0.582561 0.511716,0.559403c0.355859,-0.066559 0.793228,-0.227123 0.979677,-0.478263c0.414717,-0.558373 0.673963,-1.205092 1.037954,-1.795887c0.393807,-0.63917 0.945601,-1.001813 1.841444,-1.121378c0.844729,-0.112875 1.634085,-0.551855 2.447836,-0.847424c-0.015876,-0.131402 -0.031752,-0.262976 -0.047822,-0.39455z"/>
  </g>
 </g>
</svg>