<svg width="99" height="67" xmlns="http://www.w3.org/2000/svg">
 <!-- Generator: Sketch 39.1 (31720) - http://www.bohemiancoding.com/sketch -->
 <title>Combined Shape</title>
 <desc>Created with Sketch.</desc>

 <g>
  <title>background</title>
  <rect fill="none" id="canvas_background" height="402" width="582" y="-1" x="-1"/>
 </g>
 <g>
  <title>Layer 1</title>
  <g fill-rule="evenodd" fill="none" id="logo">
   <path id="svg_2" d="m31.651366,47.785579c-3.639741,-0.443814 -5.604973,-4.59251 -1.968126,-6.112247c3.791324,-1.49848 6.046181,3.836053 1.904861,4.357466c-2.267664,0.651658 2.944197,1.742943 3.915596,0.647186c3.035278,-1.126941 2.566402,-4.060039 1.83613,-6.125734c-0.253434,-1.582526 -0.570368,-3.276758 -3.173347,-2.377357c-6.279901,0.387574 -11.251696,-4.499388 -10.752305,-9.071123c0.169546,-4.312163 4.77425,-7.265635 8.183921,-10.260119c-1.119403,-3.917535 -1.457397,-8.443362 1.787646,-11.857195c2.989062,-2.775071 4.506238,2.303083 5.011851,4.026236c1.123095,4.027867 -1.116262,8.260516 -4.842513,11.099822c0.355801,1.346796 0.705879,2.694492 1.068474,4.040223c3.937707,-0.583171 7.69643,1.969133 7.911203,4.958676c0.608438,2.699603 -1.648858,5.249037 -4.732095,6.409249c-0.050699,2.318182 1.619187,4.72283 1.019174,7.116687c-0.576224,2.475035 -4.194793,3.688722 -7.170468,3.148231l-0.000002,0zm4.110833,-10.561638c1.115616,-1.606379 -0.907954,-4.44336 -1.019057,-6.505346c0.043696,-3.595664 -4.928489,0.696516 -3.449868,2.462262c0.438308,1.044835 4.242743,2.960898 0.748068,1.779185c-3.648533,-1.67503 -3.481422,-5.984797 -0.14771,-7.804509c2.796865,-0.475218 1.088646,-3.338118 0.561647,-4.278478c-3.435145,2.401424 -7.328734,5.425297 -6.736307,9.312021c0.446255,3.643008 5.623572,5.852975 10.043227,5.034867l0,-0.000001zm2.311313,-0.695362c3.276317,-1.613388 3.168793,-5.847609 -0.415735,-7.160866c-3.824711,-1.55024 -1.205028,2.511128 -1.134948,4.057029c0.530791,0.59179 0.230119,4.040086 1.550683,3.103836zm-4.037881,-19.408767c2.01535,-1.870135 4.319112,-4.570034 2.903742,-7.0426c-3.04799,-1.543342 -4.741782,2.629299 -4.816743,4.456407c-0.02773,1.184738 -0.25534,5.268327 1.913003,2.586193l0,0l-0.000002,0z" stroke-opacity="null" stroke-width="null" stroke="null" fill="#000000"/>
   <text xml:space="preserve" text-anchor="start" font-family="'Shadows Into Light', serif" font-size="15" id="svg_3" y="49.090056" x="61.363349" fill-opacity="null" stroke-opacity="null" stroke-width="0" stroke="null" fill="#000000">yc</text>
  </g>
 </g>
</svg>