<svg width="99" height="67" xmlns="http://www.w3.org/2000/svg">
 <!-- Generator: Sketch 39.1 (31720) - http://www.bohemiancoding.com/sketch -->

 <title>Combined Shape</title>
 <desc>Created with Sketch.</desc>
 <g>
  <title>background</title>
  <rect x="-1" y="-1" width="18.097559" height="12.894308" id="canvas_background" fill="none"/>
 </g>
 <g>
  <title>Layer 1</title>
  <g id="logo" fill="none" fill-rule="evenodd">
   <path fill="#000000" stroke="#ffffff" stroke-width="null" d="m22.016331,48.07755c-3.639741,-0.443814 -5.604973,-4.59251 -1.968126,-6.112247c3.791324,-1.49848 6.046181,3.836053 1.904861,4.357466c-2.267664,0.651658 2.944197,1.742943 3.915596,0.647186c3.035278,-1.126941 2.566402,-4.060039 1.83613,-6.125734c-0.253434,-1.582526 -0.570368,-3.276758 -3.173347,-2.377357c-6.279901,0.387574 -11.251696,-4.499388 -10.752305,-9.071123c0.169546,-4.312163 4.77425,-7.265635 8.183921,-10.260119c-1.119403,-3.917535 -1.457397,-8.443362 1.787646,-11.857195c2.989062,-2.775071 4.506238,2.303083 5.011851,4.026236c1.123095,4.027867 -1.116262,8.260516 -4.842513,11.099822c0.355801,1.346796 0.705879,2.694492 1.068474,4.040223c3.937707,-0.583171 7.69643,1.969133 7.911203,4.958676c0.608438,2.699603 -1.648858,5.249037 -4.732095,6.409249c-0.050699,2.318182 1.619187,4.72283 1.019174,7.116687c-0.576224,2.475035 -4.194793,3.688722 -7.170468,3.148231l-0.000002,0l0,-0.000001zm4.110833,-10.561638c1.115616,-1.606379 -0.907954,-4.44336 -1.019057,-6.505346c0.043696,-3.595664 -4.928489,0.696516 -3.449868,2.462262c0.438308,1.044835 4.242743,2.960898 0.748068,1.779185c-3.648533,-1.67503 -3.481422,-5.984797 -0.14771,-7.804509c2.796865,-0.475218 1.088646,-3.338118 0.561647,-4.278478c-3.435145,2.401424 -7.328734,5.425297 -6.736307,9.312021c0.446255,3.643008 5.623572,5.852975 10.043227,5.034867l0,-0.000001l0,-0.000001zm2.311313,-0.695362c3.276317,-1.613388 3.168793,-5.847609 -0.415735,-7.160866c-3.824711,-1.55024 -1.205028,2.511128 -1.134948,4.057029c0.530791,0.59179 0.230119,4.040086 1.550683,3.103836l0,0.000001zm-4.037881,-19.408767c2.01535,-1.870135 4.319112,-4.570034 2.903742,-7.0426c-3.04799,-1.543342 -4.741782,2.629299 -4.816743,4.456407c-0.02773,1.184738 -0.25534,5.268327 1.913003,2.586193l0,0l-0.000002,0z" id="svg_2"/>
   <text fill="#000000" stroke="null" stroke-width="0" stroke-opacity="null" fill-opacity="null" x="48.954591" y="48.6521" id="svg_3" font-size="20" font-family="'Shadows Into Light', serif" text-anchor="start" xml:space="preserve">yc</text>
  </g>
  <path id="svg_1" d="m56.299562,16.994719c-0.178948,0 -0.270928,-0.158436 -0.270928,-0.34843c0,-0.158399 0.045983,-0.312187 0.178948,-0.312187c0.091979,0 0.230442,0.153788 0.276425,0.312187c0.091979,0.230627 0,0.34843 -0.184446,0.34843zm30.589328,9.04017c0.409404,0 0.50137,0.040633 0.270928,0.31215c-0.132966,0.189993 -0.40939,0.348393 -0.542356,0.348393c-0.138449,0 -0.276425,-0.158399 -0.276425,-0.348393c0,-0.194654 0.18446,-0.31215 0.547853,-0.31215zm-28.582861,-11.058164c-0.40939,-0.076876 -0.455387,-0.466159 0,-0.583692c0.230428,-0.036193 0.363408,0.076863 0.363408,0.312187c0,0.194629 -0.13298,0.307735 -0.363408,0.271505zm-5.103143,12.297776c0.547853,-0.113118 0.547853,-0.194421 0.363408,-0.461511c-0.137976,-0.194421 -0.183958,-0.42972 -0.091979,-0.506608c0.045983,-0.117742 0.276425,0 0.40939,0.230651c0.184446,0.312187 0.322408,0.353066 0.685815,0.158399c0.225446,-0.117521 0.40939,-0.194605 0.40939,-0.076863c0,0.076863 0.138463,0 0.317411,-0.158399c0.276439,-0.230651 0.322421,-0.737468 0.045997,-1.008997c-0.224945,-0.230651 -1.366634,-0.153763 -1.684046,0.117521c-0.183958,0.194666 -0.322421,0.154009 -0.50137,-0.194384c-0.276425,-0.579289 -0.276425,-0.660617 0.363394,-0.69681c0.547853,0 0.547853,0 0.091979,-0.235299c-0.229941,-0.113118 -0.455373,-0.348393 -0.455373,-0.502181c0,-0.389259 0.634822,-0.61991 0.911247,-0.34838c0.091979,0.113093 0.270941,0.230651 0.455387,0.230651c0.363408,0 2.098432,-1.316548 2.098432,-1.588078c0,-0.117729 0.179449,-0.194593 0.363408,-0.117729c0.225432,0.040866 0.634836,-0.076863 1.049724,-0.271529c0.588339,-0.312163 0.588339,-0.348393 0.270928,-0.855001c-0.224945,-0.348393 -0.50137,-0.466159 -1.141202,-0.466159c-0.726802,0 -0.911247,0.0769 -1.136192,0.543059c-0.09248,0.31215 -0.368891,0.542814 -0.547853,0.542814c-0.317411,0 -0.40939,-0.348184 -0.091979,-0.542814c0.137962,-0.0769 0.229941,-0.348393 0.229941,-0.619922c0,-0.425305 -0.091979,-0.502181 -0.685815,-0.38905c-0.593836,0.076863 -0.593836,0.040633 -0.455387,-0.543084c0.091979,-0.34838 0.224945,-0.660543 0.317425,-0.696773c0.091979,-0.040633 0.183945,-0.38905 0.183945,-0.737443c0,-0.696847 0.271429,-0.814368 0.773299,-0.312187c0.229927,0.271517 0.368404,0.312187 0.455373,0.076863c0.091979,-0.153763 0.414387,-0.189993 0.916258,-0.11313c0.680819,0.153788 0.726802,0.11313 0.634822,-0.348393c-0.045983,-0.271493 -0.092466,-0.58368 -0.138449,-0.660543c0,-0.117558 -0.224945,-0.271529 -0.496373,-0.389087c-0.547853,-0.194593 -0.685815,-0.660543 -0.184446,-0.660543c0.138463,0 0.271415,-0.0769 0.271415,-0.230896c0,-0.117558 0.276439,-0.194421 0.639833,-0.158424c0.501871,0.040866 0.772798,-0.113069 1.458614,-0.9274c0.501871,-0.583717 0.865265,-0.895879 0.911261,-0.73748c0.045983,0.194421 0.276425,0.307514 0.501857,0.307514c0.363408,0 0.409404,-0.113093 0.276439,-0.619701c-0.046484,-0.348417 -0.276439,-0.773673 -0.414888,-0.96834c-0.409404,-0.429892 -0.409404,-0.932073 0,-0.778346c0.322408,0.154009 1.325634,-0.271284 1.325634,-0.542801c0,-0.117742 0.133467,-0.194629 0.317411,-0.194629c0.18446,0 0.271429,0.235287 0.271429,0.543047c0,0.38905 0.091979,0.542838 0.322421,0.429708c0.178948,-0.081315 0.317425,-0.312187 0.317425,-0.465938c0,-0.466183 1.4586,-1.280527 1.821994,-1.049667c0.138477,0.076925 0.276425,0 0.322936,-0.271493c0.132952,-0.543047 0.956729,-0.96834 1.320123,-0.69681c0.18446,0.113093 0.363422,0.0769 0.409905,-0.040633c0.091965,-0.153996 0.455373,-0.271529 0.864764,-0.307784c0.40939,-0.040633 0.957244,-0.194629 1.187686,-0.353029c0.864764,-0.502181 1.730042,-0.46595 2.093436,0.077133c0.230442,0.389026 0.322408,0.389026 0.322408,0.117496c0,-0.348417 0.179463,-0.38905 1.274669,-0.271493c1.735038,0.153996 2.006467,0.153996 2.6463,-0.04067c0.40939,-0.113118 0.547839,-0.076888 0.547839,0.235263c0,0.194666 0.13298,0.34843 0.317425,0.34843c0.137962,0 0.270928,-0.11313 0.270928,-0.230872c0,-0.31215 0.732313,-0.465938 1.372132,-0.31215c0.496373,0.153996 0.542356,0.194593 0.40939,1.23982c-0.045983,0.62435 0,1.049643 0.086983,1.049643c0.091965,0 0.184446,-0.271529 0.184446,-0.66058c0,-0.656152 0.50137,-0.927461 0.685815,-0.389063c0.045997,0.194433 0.178948,0.117533 0.270928,-0.189981c0.230456,-0.814576 0.732313,-0.389296 0.593836,0.502181c-0.137948,0.737443 -0.137948,0.737443 0.271442,0.465914c0.230428,-0.117533 0.409377,-0.425256 0.409377,-0.619701c0,-0.194642 0.138477,-0.425501 0.322435,-0.506829c0.36338,-0.153726 0.773285,0.429745 0.639819,0.855209c-0.045983,0.194458 -0.045983,0.348417 0.086969,0.348417c0.09248,0 0.18446,-0.113093 0.18446,-0.194629c0,-0.113118 0.225432,-0.153788 0.501857,-0.076863c0.593349,0.117533 0.680318,0.429684 0.178962,0.619677c-0.132966,0.081536 -0.271429,0.271529 -0.271429,0.429953c0,0.271529 0.092466,0.271529 0.593836,0c0.818781,-0.465938 1.182175,-0.429953 1.320652,0.076863c0.091965,0.271529 0.271415,0.389271 0.455373,0.271529c0.184446,-0.040658 0.593836,0.117742 0.911261,0.38905c0.276425,0.23086 0.685815,0.425293 0.870261,0.425293c0.271429,0 0.271429,0.194654 0.178948,0.737676c-0.091965,0.583717 -0.091965,0.66058 0.18446,0.425317c0.363394,-0.38466 0.50137,-0.348454 0.634836,0.194384c0.045983,0.271529 0.36839,0.466159 0.731798,0.583692c0.40939,0.077133 0.634836,0.271517 0.634836,0.502389c0,0.235287 0.137948,0.506608 0.276425,0.660604c0.363408,0.271493 0.270928,1.085836 -0.138477,1.357353c-0.137948,0.081328 -0.317397,0.04067 -0.363394,-0.076863c-0.091965,-0.117766 -0.40939,-0.117766 -1.00324,0c-0.957244,0.271284 -1.136192,0.348393 -0.911247,0.701213c0.138463,0.230651 1.730529,0.153788 2.600303,-0.117742c0.271429,-0.117545 0.363408,0 0.363408,0.543059c0,0.389026 -0.091979,0.69681 -0.229941,0.69681c-0.09248,0 -0.179449,0.117521 -0.179449,0.31215c0,0.466134 0.225446,0.425256 0.819282,-0.117558c0.31691,-0.31215 0.501356,-0.389259 0.726802,-0.194593c0.229941,0.194593 0.276425,0.194593 0.276425,-0.117558c0,-0.190226 -0.09248,-0.348393 -0.230428,-0.348393c-0.086983,0 -0.179463,-0.153996 -0.179463,-0.307784c0,-0.194605 0.133467,-0.348393 0.317411,-0.348393c0.138463,0 0.322421,0.076863 0.322421,0.189993c0,0.117791 0.179449,0.271517 0.409891,0.312187c0.316924,0.117766 0.40939,0.271529 0.363394,0.737468c-0.092466,0.891415 0.091993,1.162969 0.772798,1.009206c0.322421,-0.077133 0.501356,0 0.363408,0.153763c-0.040986,0.076863 0,0.271529 0.091979,0.352796c0.368891,0.230884 0.230428,0.773735 -0.178962,0.773735c-0.501857,0 -0.639833,0.194593 -0.36839,0.543022c0.183945,0.194629 0.322408,0.230651 0.501356,0.076888c0.414888,-0.38905 0.501871,-0.076888 0.547853,1.475156c0,0.778076 0.091979,1.398023 0.183958,1.398023c0.225432,0 0.138463,0.855209 -0.183958,1.203602c-0.179449,0.194421 -0.179449,0.384402 -0.045983,0.542801c0.322408,0.34843 0,1.357427 -0.409905,1.357427c-0.36338,0 -1.049209,0.737443 -1.049209,1.08586c0,0.425526 -0.588339,0 -0.726802,-0.46595c-0.137962,-0.425281 -0.137962,-0.425281 -0.230442,-0.117742c-0.086969,0.353041 0.409891,1.438902 0.824292,1.746624c0.271415,0.235324 -0.230442,0.62435 -0.59385,0.46595c-0.18446,-0.076863 -0.271429,-0.307514 -0.271429,-0.542814c0,-0.660543 -1.141202,-2.325717 -2.006467,-2.950042c-0.460369,-0.307784 -0.869774,-0.656177 -0.869774,-0.773698c0,-0.235299 -1.459101,-0.96834 -2.277882,-1.203627c-0.455888,-0.117742 -0.59385,-0.076876 -0.59385,0.235287c0,0.230651 -0.086969,0.307514 -0.271429,0.230651c-0.40939,-0.153788 -0.593836,0.194666 -0.230428,0.543059c0.501857,0.425281 0.414888,0.932073 -0.132966,0.737443c-0.368404,-0.117533 -0.414401,-0.0769 -0.276425,0.583704c0.045983,0.384623 0.138463,0.891415 0.138463,1.122066c0,0.235299 0.091965,0.389087 0.183945,0.389087c0.133481,0 0.179449,-0.0769 0.086983,-0.194421c-0.045983,-0.117766 0.046498,-0.230872 0.230428,-0.230872c0.138477,0 0.271429,0.153972 0.271429,0.307735c0,0.158424 -0.179435,0.31215 -0.501857,0.271554c-0.270928,0 -0.50137,-0.11313 -0.50137,-0.190018c0,-0.353066 -1.228672,-2.755646 -1.592066,-3.108466c-0.409404,-0.38466 -0.137976,-0.502181 -3.373115,1.321148c-0.501356,0.271529 -1.049209,0.855209 -1.325634,1.280527c-0.225446,0.425256 -0.58884,0.855209 -0.772798,0.932073c-0.184446,0.0769 -0.865265,0.69681 -1.459115,1.35739c-2.55432,2.909164 -2.139433,3.257581 -1.96047,9.198594c0.773285,4.501853 0.773285,4.501853 0.773285,4.501853c-1.822508,0 -1.822508,0 -1.822508,0c-1.504596,0 -1.504596,0 -1.504596,0c0.137962,-4.153694 0.137962,-4.153694 0.137962,-4.153694c0.091965,-0.34816 0.138463,-1.049606 0.18446,-1.438693c0.045983,-0.23086 -1.279665,-1.239857 -1.233669,-1.470483c0,-0.194629 1.371631,0.34843 1.371631,0.153763c0.225432,-2.832301 0,-5.08557 -0.59385,-6.284757c-0.137962,-0.73748 -1.279651,-3.108233 -1.4586,-3.108233c-0.045997,0 -0.368404,-0.23086 -0.685815,-0.502389c-0.547867,-0.506584 -0.772798,-0.542838 -3.828989,-0.69681c-3.281122,-0.158191 -3.281122,-0.158191 -3.281122,-0.158191c-0.777795,0.542838 -0.777795,0.542838 -0.777795,0.542838c-0.455373,0.353029 -0.911247,0.583692 -1.044227,0.583692c-0.276425,0 -1.418114,0.814539 -1.914488,1.280453c-0.045983,0 -0.091965,-0.040596 -0.091965,-0.076863c-0.045997,0 -0.045997,0 -0.045997,-0.040658c-0.045983,-0.113093 -0.092466,-0.23086 -0.184446,-0.348393c0.276425,-0.194629 0.501857,-0.312371 0.593836,-0.271493c0.137962,0.076863 0.271429,0 0.271429,-0.194666c0,-0.194421 -0.271429,-0.271517 -0.99823,-0.194421c-0.870275,0.117558 -1.095707,0.158191 -1.233669,0.619714c-0.225446,0.235287 -0.271429,0.583704 -0.137962,0.855234c-0.046498,0.348393 -0.046498,0.58368 0,0.58368c0.045983,0 0.091965,-0.076863 0.229941,-0.158399c0,0.04067 0.045983,0.081536 0.092466,0.117742c-0.455874,0.117533 -0.686316,0.46595 -0.639833,0.814343c-0.230428,0.158399 -0.455874,0.235287 -0.732285,0.35282c0,0 0,-0.040633 -0.041,-0.040633c0.179449,-0.348393 0.271429,-0.73748 0.317411,-1.32116c0.09248,-0.656177 0.045983,-1.08586 -0.091965,-1.08586c-0.091979,0 -0.184446,0.158399 -0.184446,0.389014c0.045969,0.194666 -0.041,0.389087 -0.224959,0.425317c-0.138463,0.040633 -0.230428,-0.03623 -0.230428,-0.230651c0,-0.466159 -0.178962,-0.466159 -0.588854,-0.040866c-0.183945,0.158399 -0.547352,0.348417 -0.864764,0.429953c-0.414888,0.113093 -0.547853,0.036193 -0.732299,-0.389087c-0.137962,-0.348393 -0.229941,-0.737676 -0.137962,-0.891439c0.045983,-0.194629 0.045983,-0.35282 -0.132966,-0.35282c-0.501871,0 -0.138463,-0.619947 0.455373,-0.737688zm3.920955,-8.922428c-0.276425,-0.040633 -0.501871,-0.153763 -0.593836,-0.312163c-0.045997,-0.23086 -0.091979,-0.23086 -0.091979,0c0,0.158399 -0.184446,0.271529 -0.363408,0.312163c-0.322408,0 -0.322408,0.040658 0.045997,0.194666c0.224931,0.076863 0.455373,0.194384 0.501356,0.194384c0.040986,0 0.271429,-0.117521 0.501871,-0.194384c0.40939,-0.194666 0.40939,-0.194666 0,-0.194666zm36.147845,6.248527c0.086983,0.0769 0.178962,-0.040866 0.178962,-0.235287c0,-0.153972 -0.091979,-0.30776 -0.178962,-0.30776c-0.138449,0 -0.230428,0.076888 -0.230428,0.189993c0,0.117766 0.091979,0.276166 0.230428,0.353053zm-0.322408,0.348417c-0.045983,-0.117766 -0.271429,-0.271517 -0.455874,-0.271517c-0.132966,0 -0.224945,0.153751 -0.132966,0.271517c0.040986,0.117533 0.225432,0.194433 0.40939,0.194433c0.179449,0 0.225432,-0.0769 0.179449,-0.194433zm-0.40939,1.746416c0.137962,0 0.322408,-0.040633 0.322408,-0.076863c0,-0.081536 -0.184446,-0.158399 -0.322408,-0.235299c-0.179449,-0.076888 -0.317425,-0.03623 -0.317425,0.0769c0,0.117742 0.137976,0.235263 0.317425,0.235263zm0.363408,-3.687486c0.183945,-0.076925 0.276411,-0.194654 0.229941,-0.307784c-0.137976,-0.27592 -0.910774,-0.27592 -0.910774,0c0,0.307784 0.270941,0.425317 0.680833,0.307784zm-2.503328,-2.909434c-0.230442,0.117766 -0.368404,0.348417 -0.322435,0.466159c0.230442,0.307551 0.501885,0.230651 0.731812,-0.271529c0.225446,-0.466159 0.133467,-0.543022 -0.409377,-0.194629zm-0.870275,5.977009c1.187672,1.04519 1.233669,1.08586 1.233669,0.737468c0,-0.194421 -0.091979,-0.35282 -0.230442,-0.35282c-0.132952,0 -0.363394,-0.194666 -0.501356,-0.425281c-0.13298,-0.230896 -0.40939,-0.466196 -0.634836,-0.466196c-0.414387,0 -0.414387,0.040878 0.132966,0.506829zm-0.956757,-1.827976c0.275938,0 0.409404,-0.076863 0.229955,-0.113106c-0.137962,-0.076888 -0.363408,-0.076888 -0.50137,0c-0.138477,0.036242 0,0.113106 0.271415,0.113106zm-1.320638,-5.275563c0.137962,0.117558 0.547352,0.271321 0.910746,0.34843c0.639847,0.117521 0.685829,0.117521 0.322421,-0.194629c-0.414387,-0.38466 -1.550579,-0.502181 -1.233168,-0.1538zm-2.779766,-6.438483c-0.137962,0.113093 -0.183945,0.348393 -0.137962,0.502144c0.091979,0.312187 0.363408,0.04067 0.363408,-0.425281c0,-0.235299 -0.045997,-0.271529 -0.225446,-0.076863zm1.366634,8.37959c0.363408,0.194396 0.501871,0.194396 0.68633,-0.077109c0.363394,-0.425305 0.132952,-0.619701 -0.547867,-0.34838c-0.547853,0.190202 -0.547853,0.190202 -0.138463,0.425489zm-0.910746,-1.941107c0.685815,-0.425244 0.685815,-0.425244 0.137962,-0.425244c-0.368404,0 -0.639833,0.153726 -0.777795,0.425244c-0.086983,0.271321 -0.179449,0.425317 -0.133467,0.425317c0,0 0.363408,-0.230884 0.773299,-0.425317zm-1.00324,6.289197c0.31691,0.425317 0.864778,0.425317 0.685815,-0.040658c-0.045983,-0.153972 -0.092466,-0.348393 -0.092466,-0.389271c0,-0.03623 -0.183958,-0.03623 -0.40939,0.040878c-0.368404,0.076888 -0.368404,0.194421 -0.183958,0.38905zm-1.413118,-1.592677c0.363394,0.425305 0.547853,0.465938 0.957244,0.153788c0.271429,-0.194421 0.271429,-0.194421 0,-0.230651c-0.137962,0 -0.50137,-0.040878 -0.818781,-0.117766c-0.455874,-0.153763 -0.455874,-0.153763 -0.138463,0.194629zm-0.045983,-4.230569c0.230428,0 0.501857,-0.61991 0.363408,-0.814331c-0.178962,-0.194629 -0.547366,0.117521 -0.547366,0.465938c0,0.194642 0.091979,0.348393 0.183958,0.348393zm-2.231412,2.63788c-0.276425,0.158399 -0.230428,0.194666 0.13298,0.194666c0.230428,0 0.501356,-0.077133 0.593836,-0.194666c0.137948,-0.307723 -0.317425,-0.307723 -0.726816,0zm0.045997,3.416017c0.040986,0.040878 0.178948,-0.040658 0.317411,-0.230651c0.137948,-0.158399 0.547366,-0.353029 0.864764,-0.429929c0.40939,-0.117558 0.59385,-0.307539 0.59385,-0.583704c0,-0.655907 -0.639833,-0.461523 -1.320666,0.389283c-0.276411,0.42972 -0.501356,0.778138 -0.455359,0.855001zm-0.501857,-1.787098c0.409377,-0.425256 0.409377,-0.502389 0.086955,-0.619922c-0.363394,-0.153788 -0.634321,0.194666 -0.634321,0.814343c-0.046484,0.466159 -0.046484,0.466159 0.547366,-0.194421zm-0.731812,-4.57895c0.045983,0.31215 0.137962,0.271517 0.409377,-0.30776c0.322435,-0.619714 0.322435,-0.70125 0.045997,-0.70125c-0.178948,0 -0.363408,0.117558 -0.40939,0.312199c-0.091979,0.153751 -0.091979,0.506817 -0.045983,0.69681zm-0.225446,-3.18073c0,0.158191 0.086969,0.542838 0.179449,0.814343c0.137962,0.543047 0.137962,0.543047 0.276425,0.076888c0.178948,-0.465914 0,-1.162724 -0.276425,-1.162724c-0.133467,0 -0.179449,0.117496 -0.179449,0.271493zm-3.193652,1.280281c-0.225432,0.271529 -0.225432,0.543059 -0.046484,1.35739c0.09248,0.583692 0.322922,1.167397 0.455874,1.280527c0.230442,0.194629 0.276425,0 0.322408,-1.203418c0,-1.47052 -0.230428,-1.936642 -0.731798,-1.434498zm0.40939,4.113036c0.045997,0.0769 0.137962,-0.076888 0.091979,-0.307747c0,-0.235299 -0.045983,-0.271529 -0.137962,-0.117533c-0.041,0.153763 -0.041,0.348393 0.045983,0.425281zm1.643059,-3.646877c-0.045983,0.0769 -0.045983,0.619947 0.091979,1.203418c0.138463,1.009206 0.179449,1.049839 0.225446,0.312371c0.045983,-1.203627 -0.045997,-1.787307 -0.317425,-1.515789zm-1.55108,10.945046c0.276425,-0.466159 0.731812,-1.244297 1.049223,-1.710419c0.363394,-0.502217 0.593836,-1.16276 0.685815,-1.82334c0.133467,-1.045227 0.133467,-1.045227 0.133467,-1.045227c-0.547853,0.579277 -0.547853,0.579277 -0.547853,0.579277c-0.271429,0.312187 -0.455387,0.66058 -0.455387,0.778138c0,0.307735 -0.865265,2.248805 -1.136693,2.597222c-0.137962,0.194384 -0.368404,0.62435 -0.40939,0.932073c-0.230442,0.891256 0.179449,0.737468 0.680819,-0.307723zm-3.235139,3.99527c0.138463,0.773673 0.138463,0.773673 0.59385,-0.891452c0.271429,-0.895892 0.680819,-2.33012 0.957244,-3.221584c0.363394,-1.12653 0.501857,-2.058603 0.501857,-3.375323c0,-1.710247 -0.046484,-1.746477 -0.409878,-1.551811c-0.823791,0.502168 -1.279665,1.900191 -1.463624,4.614934c-0.086969,1.398293 -0.179449,2.796316 -0.271415,3.104076c-0.045997,0.312163 0,0.895867 0.091965,1.32116zm0.09248,-9.931646c0.178948,0.384647 0.363408,0.69681 0.363408,0.69681c0.045983,0 0.270914,-0.235299 0.455373,-0.543022c0.230428,-0.271309 0.593836,-0.583471 0.731812,-0.696602c0.542843,-0.353029 0.680805,-1.438889 0.225432,-2.176357c-0.363408,-0.66058 -1.366634,-1.398268 -1.551094,-1.162969c-0.091965,0.076888 -0.224931,0.814576 -0.317411,1.669577c-0.183945,1.28049 -0.183945,1.669749 0.09248,2.212563zm-0.276425,-8.886382c0.091979,0.077109 0.183945,0.03623 0.183945,-0.081291c0,-0.153996 -0.091965,-0.307784 -0.183945,-0.38466c-0.138463,-0.081524 -0.225446,-0.040658 -0.225446,0.11313c0,0.117533 0.086983,0.271529 0.225446,0.35282zm-14.767561,10.433765c0.634822,0.040866 0.634822,0.040866 0.634822,0.040866c0.639833,0 1.279665,-0.502389 1.279665,-0.932073c0,-0.271529 -0.045983,-0.271529 -1.914488,0.891206zm0.271429,-1.085873c0,0.117803 0.091979,0.235299 0.230442,0.235299c0.224945,0 0.864764,-0.69681 0.726802,-0.814331c-0.138463,-0.158399 -0.957244,0.34838 -0.957244,0.579032zm0.501857,-2.674073c0.685829,0.773882 1.00324,0.85077 1.366634,0.34838c0.368404,-0.465914 0.045997,-0.778101 -1.04971,-0.891231c-0.91076,-0.117766 -0.91076,-0.117766 -0.316924,0.54285zm-0.501857,-2.176161c0,0.081291 0.322408,0.271284 0.685815,0.429684c1.684059,0.73748 2.006467,0.73748 1.96047,0.036267c0,-0.425317 -0.685815,-1.357414 -0.957244,-1.357414c-0.322408,0 -1.689042,0.737468 -1.689042,0.891464zm2.462341,5.510851c0.50137,0 0.547352,-0.117558 0.137962,-0.307551c-0.184446,-0.040866 -0.363408,0 -0.40939,0.11313c-0.09248,0.117496 0.045983,0.194421 0.271429,0.194421zm0.363408,-9.11707c-0.317425,-0.194654 -0.727317,-0.271517 -0.911261,-0.194654c-0.317411,0.153996 -0.271429,0.194654 0.183945,0.31215c0.225446,0.077133 0.68633,0.154009 0.911261,0.190239c0.271429,0 0.271429,-0.077109 -0.183945,-0.307735zm-0.040986,1.398023c0.270914,0 0.317411,-0.040658 0.132966,-0.158191c-0.132966,-0.036206 -0.317425,-0.036206 -0.409404,0.04067c-0.045983,0.076863 0.091979,0.153788 0.276439,0.117521zm0.270914,0.891476c-0.639819,0 -0.639819,0.036193 -0.270914,0.34838c0.455373,0.348393 0.588339,0.389026 0.772798,0.153763c0.317397,-0.307551 0.091965,-0.502144 -0.501885,-0.502144zm0.911275,-4.384357c-0.18446,-0.194629 -0.230442,0.153788 -0.137976,0.579068c0.045983,0.271529 0.229941,0.506792 0.322421,0.506792c0.178948,0 0.045983,-0.855209 -0.184446,-1.08586zm1.4586,5.121763c-0.091965,0.036267 0.138463,0.271529 0.409891,0.466183c0.276425,0.194421 0.501356,0.271296 0.501356,0.153763c0,-0.271493 -0.772784,-0.778309 -0.911247,-0.619947zm-1.141202,0.271529c-0.40939,0.271554 -0.178948,0.968327 0.414401,1.085885c0.317411,0.076876 0.819282,0.389063 1.136693,0.696785c0.276425,0.312187 0.501356,0.429953 0.501356,0.312187c0,-0.38905 -1.822007,-2.253257 -2.05245,-2.094858zm1.868505,3.221621c-0.271415,-0.624583 -0.58884,-0.932134 -1.18269,-1.126763c-0.455373,-0.153763 -0.911247,-0.235263 -1.049209,-0.194396c-0.138463,0.040633 0.40939,0.542814 1.187686,1.126506c1.4586,1.008997 1.4586,1.008997 1.044213,0.194654zm2.420854,-5.977034c-0.091979,0 -0.18446,0.153788 -0.18446,0.307551c0,0.194629 0.09248,0.312187 0.18446,0.312187c0.132966,0 0.225446,-0.117558 0.225446,-0.312187c0,-0.153763 -0.09248,-0.307551 -0.225446,-0.307551zm-0.414387,3.18073c0,0.271493 0.777795,0.076888 1.095206,-0.271529c0.455387,-0.58368 0.40939,-0.737468 -0.184446,-0.737468c-0.40939,0 -0.91076,0.543071 -0.91076,1.008997zm1.325648,-8.379627c-0.138463,0.502181 -0.230442,0.927461 -0.184446,0.96834c0.138449,0.153788 0.501871,-1.008973 0.501871,-1.475132c0,-0.194421 -0.138477,0.040878 -0.317425,0.506792zm2.369875,7.836568c-0.230442,0 -0.409404,0.077133 -0.409404,0.23086c0,0.117558 0.132966,0.194666 0.270928,0.194666c0.184446,0 0.363408,-0.077109 0.409891,-0.194666c0.091979,-0.153726 -0.046484,-0.23086 -0.271415,-0.23086zm-0.547867,7.293729c0.271429,0.701458 0.680819,1.35739 0.911261,1.515789c0.230442,0.117558 0.685815,0.660604 0.957244,1.203627c0.271429,0.542838 0.547853,0.968131 0.59385,0.968131c0.224931,0 -0.230442,-3.569781 -0.547853,-4.65585c-0.276439,-0.931864 -0.363422,-1.787098 -0.317425,-3.144488c0.040986,-1.008973 0,-1.900437 -0.091965,-1.977312c-0.045997,-0.076888 -0.363408,-0.076888 -0.639833,0c-0.501871,0.153763 -0.547853,0.271529 -0.547853,1.126739c0,0.655944 -0.091993,1.008997 -0.317425,1.162724c-0.639819,0.34843 -0.593836,2.325729 0,3.80064zm-1.320638,-5.198651c-0.091979,-0.583692 -0.183945,-0.66058 -0.685815,-0.66058c-0.59385,0 -0.59385,0.040658 -0.547853,0.855001c0,0.502389 0.092466,1.086069 0.138449,1.357378c0.045997,0.271529 0.225446,0.543022 0.409404,0.583692c0.363394,0.194654 0.772784,-1.162724 0.685815,-2.135491zm-0.685815,3.918161c-0.409404,-0.46595 -0.685815,-0.968131 -0.726816,-1.08586c0,-0.153763 -0.230428,-0.542814 -0.50137,-0.891231c-0.276425,-0.348393 -0.593836,-0.778322 -0.732299,-0.932109c-0.455373,-0.543022 -0.363408,-0.076863 0.138463,1.12653c0.317411,0.814539 0.864778,1.552019 1.504596,2.171929c1.182676,1.04963 1.320652,0.855038 0.317425,-0.389259zm-0.726816,1.90484c0.496373,0 0.455387,-0.040633 -0.230428,-0.660543c-0.455387,-0.389087 -0.772798,-0.814368 -0.772798,-1.009009c0,-0.153751 -0.59385,-0.701238 -1.279651,-1.203418c-0.680833,-0.50678 -1.320666,-1.00896 -1.412631,-1.162932c-0.09248,-0.194421 -0.138463,-0.194421 -0.138463,0.03623c0,0.235299 -0.224945,0.271493 -0.957244,0.153763c-0.50137,-0.0769 -0.91076,-0.0769 -0.91076,-0.036022c0,0.076888 0.183945,0.542838 0.368404,1.00896c0.317425,0.77371 0.455373,0.932134 1.458614,1.239661c0.634836,0.194629 1.638049,0.660568 2.277882,1.00896c0.59385,0.353066 1.320652,0.62435 1.597077,0.62435zm-7.115094,1.31672c0.184446,0 0.455874,-0.076863 0.639819,-0.194593c0.317425,-0.271321 0.046498,-0.271321 -0.547352,0c-0.271429,0.117729 -0.317411,0.15396 -0.092466,0.194593zm-0.50137,-0.968327c0.455387,-0.158166 1.914488,-0.312163 3.240136,-0.312163c2.50284,-0.03623 3.004697,-0.153726 2.001457,-0.38905c-0.317397,-0.076863 -1.044213,-0.271529 -1.638049,-0.46595c-1.049223,-0.348393 -3.194153,-0.23086 -3.419098,0.158228c-0.046484,0.077072 -0.276425,0.117729 -0.501857,0.077072c-0.455387,-0.117742 -0.911261,0.194445 -1.049223,0.814368c-0.184446,0.502144 0.137962,0.543022 1.366634,0.117496zm-3.64453,0.891464c0.091979,0.312187 0.547853,0.348393 0.911261,0.076863c0.224931,-0.153751 0.224931,-0.230614 0,-0.465914c-0.184446,-0.230896 -0.317411,-0.230896 -0.593836,-0.03623c-0.184446,0.11313 -0.317425,0.307551 -0.317425,0.425281zm-1.458614,2.71478c0.178962,0 0.270941,0.117558 0.178962,0.348417c-0.041,0.158399 -0.178962,0.312163 -0.271429,0.312163c-0.137962,0 -0.224945,-0.153763 -0.224945,-0.312163c0,-0.189993 0.132966,-0.348417 0.317411,-0.348417z" fill-opacity="null" stroke-width="null" stroke="#ffffff" fill="#000000"/>
 </g>
</svg>